<?xml version="1.0" encoding="iso-8859-1"?>
<!-- Generator: Adobe Illustrator 19.0.0, SVG Export Plug-In . SVG Version: 6.00 Build 0)  -->
<svg version="1.1" id="Capa_1" xmlns="http://www.w3.org/2000/svg" xmlns:xlink="http://www.w3.org/1999/xlink" x="0px" y="0px"
	 viewBox="0 0 496 496" style="enable-background:new 0 0 496 496;" xml:space="preserve">
<g>
	<g>
		<path d="M144.352,144.568V8c0-4.416-3.576-8-8-8h-64c-4.424,0-8,3.584-8,8v136.568c-27.104,3.896-48,27.264-48,55.432v256
			c0,22.056,17.944,40,40,40h96c22.056,0,40-17.944,40-40V200C192.352,171.832,171.456,148.464,144.352,144.568z M176.352,456
			c0,13.232-10.768,24-24,24h-96c-13.232,0-24-10.768-24-24v-8h144V456z M176.352,432h-144V232h144V432z M176.352,216h-144v-16
			c0-22.056,17.944-40,40-40c4.424,0,8-3.584,8-8V16h48v136c0,4.416,3.576,8,8,8c22.056,0,40,17.944,40,40V216z"/>
	</g>
</g>
<g>
	<g>
		<path d="M328.68,245.776l-1.928-2.576c-1.504-2.016-3.88-3.2-6.4-3.2h-64c-2.52,0-4.888,1.184-6.4,3.2l-1.928,2.568
			c-14.952,19.936-12.944,48.264,4.68,65.896c9.52,9.52,22.176,14.768,35.648,14.768s26.128-5.24,35.648-14.768
			C341.624,294.04,343.632,265.712,328.68,245.776z M312.688,300.352c-13.424,13.424-35.248,13.416-48.672,0
			c-11.848-11.848-13.36-30.784-3.648-44.352h55.968C326.048,269.568,324.528,288.504,312.688,300.352z"/>
	</g>
</g>
<g>
	<g>
		<path d="M438.264,245.776l-1.928-2.576c-1.504-2.016-3.88-3.2-6.4-3.2h-53.584v16h49.568c9.712,13.568,8.192,32.504-3.648,44.352
			c-11.416,11.416-28.936,13.4-42.584,4.848l-8.504,13.552c8.304,5.208,17.584,7.752,26.792,7.752
			c12.984,0,25.832-5.056,35.608-14.84C451.208,294.04,453.216,265.712,438.264,245.776z"/>
	</g>
</g>
<g>
	<g>
		<path d="M435.824,351.208c31.504-15.752,48.968-50.936,42.48-85.552l-14.088-75.136c-0.712-3.776-4.016-6.52-7.864-6.52h-112h-112
			c-3.848,0-7.16,2.744-7.856,6.528l-14.088,75.136c-6.496,34.616,10.976,69.8,42.48,85.552c8.664,4.336,18,6.92,27.472,7.872V480
			h-40v16h96v-16h-40V359.08c9.472-0.952,18.8-3.536,27.472-7.872c7.752-3.872,14.64-8.936,20.536-14.864
			c6.008,6.04,12.864,11.032,20.52,14.864c8.664,4.336,18,6.92,27.472,7.872V480h-40v16h96v-16h-40V359.08
			C417.824,358.128,427.152,355.544,435.824,351.208z M352.024,279.976c0.008,3.072-0.36,6.12-0.792,9.12
			c-0.016,0.112-0.16,0.232-0.176,0.344c-0.44,2.952-1.184,5.848-2.032,8.696c-0.16,0.536-0.344,1.08-0.52,1.616
			c-0.96,2.936-2.096,5.816-3.464,8.584c-0.056,0.112-0.128,0.208-0.184,0.312c-1.288,2.568-2.808,5.016-4.432,7.392
			c-0.416,0.6-0.824,1.2-1.256,1.784c-5.8,7.872-13.384,14.512-22.504,19.072c-17.736,8.864-38.888,8.864-56.624,0
			c-25.152-12.576-39.096-40.656-33.912-68.296l12.864-68.6h98.72l12.224,60.448l2.416,8.168c0,0,0,0.008,0,0.016
			c0,3.08-0.056,6.16,0.064,9.232C352.44,278.568,352.024,279.272,352.024,279.976z M372.04,336.904
			c-6.584-3.296-12.464-7.664-17.52-13.008c0.368-0.56,0.664-1.16,1.024-1.728c0.536-0.856,1.04-1.728,1.544-2.6
			c0.68-1.192,1.352-2.384,1.968-3.608c0.352-0.688,0.656-1.4,0.984-2.104c2.16-4.6,3.864-9.368,5.096-14.256
			c0.208-0.8,0.432-1.6,0.608-2.408c0.28-1.28,0.496-2.568,0.72-3.864c0.176-1.04,0.344-2.088,0.48-3.136
			c0.152-1.192,0.272-2.376,0.368-3.576c0.104-1.216,0.16-2.432,0.208-3.656c0.04-1.08,0.08-2.152,0.072-3.232
			c-0.008-1.448-0.088-2.904-0.176-4.368c-0.056-0.88-0.072-1.76-0.16-2.648c-0.224-2.352-0.536-4.704-0.976-7.056L353.992,200
			h95.72l12.864,68.608c5.176,27.64-8.768,55.72-33.912,68.296C410.928,345.768,389.776,345.768,372.04,336.904z"/>
	</g>
</g>
<g>
	<g>
		<path d="M104.352,272c-22.056,0-40,17.944-40,40c0,22.056,17.944,40,40,40c22.056,0,40-17.944,40-40
			C144.352,289.944,126.408,272,104.352,272z M104.352,336c-13.232,0-24-10.768-24-24s10.768-24,24-24s24,10.768,24,24
			S117.584,336,104.352,336z"/>
	</g>
</g>
<g>
	<g>
		<rect x="72.352" y="368" width="64" height="16"/>
	</g>
</g>
<g>
	<g>
		<path d="M272.352,96c-17.648,0-32-14.352-32-32c0-4.416-3.576-8-8-8s-8,3.584-8,8c0,17.648-14.352,32-32,32c-4.424,0-8,3.584-8,8
			s3.576,8,8,8c17.648,0,32,14.352,32,32c0,4.416,3.576,8,8,8s8-3.584,8-8c0-17.648,14.352-32,32-32c4.424,0,8-3.584,8-8
			S276.776,96,272.352,96z M232.352,117.488c-3.552-5.344-8.152-9.936-13.496-13.488c5.344-3.552,9.944-8.152,13.496-13.488
			c3.552,5.344,8.152,9.936,13.488,13.488C240.496,107.552,235.904,112.152,232.352,117.488z"/>
	</g>
</g>
<g>
</g>
<g>
</g>
<g>
</g>
<g>
</g>
<g>
</g>
<g>
</g>
<g>
</g>
<g>
</g>
<g>
</g>
<g>
</g>
<g>
</g>
<g>
</g>
<g>
</g>
<g>
</g>
<g>
</g>
</svg>
