<?xml version="1.0" encoding="iso-8859-1"?>
<!-- Generator: Adobe Illustrator 19.0.0, SVG Export Plug-In . SVG Version: 6.00 Build 0)  -->
<svg version="1.1" id="Capa_1" xmlns="http://www.w3.org/2000/svg" xmlns:xlink="http://www.w3.org/1999/xlink" x="0px" y="0px"
	 viewBox="0 0 496 496" style="enable-background:new 0 0 496 496;" xml:space="preserve">
<g>
	<g>
		<path d="M488,423.923H267.312l16-16H456c17.648,0,32-14.352,32-32c0-9.608-4.336-18.128-11.056-24
			c6.72-5.872,11.056-14.392,11.056-24c0-17.648-14.352-32-32-32H40c-17.648,0-32,14.352-32,32c0,9.608,4.336,18.128,11.056,24
			C12.336,357.795,8,366.315,8,375.923c0,17.648,14.352,32,32,32h172.688l16,16H8c-4.424,0-8,3.576-8,8v24c0,22.056,17.944,40,40,40
			h416c22.056,0,40-17.944,40-40v-24C496,427.499,492.424,423.923,488,423.923z M456,391.923H299.312l32-32H456
			c8.816,0,16,7.176,16,16C472,384.747,464.816,391.923,456,391.923z M40,311.923h416c8.816,0,16,7.176,16,16
			c0,8.824-7.184,16-16,16H328H168H40c-8.824,0-16-7.176-16-16C24,319.099,31.176,311.923,40,311.923z M40,391.923
			c-8.824,0-16-7.176-16-16c0-8.824,7.176-16,16-16h124.688l32,32H40z M187.312,359.923h121.376L248,420.611L187.312,359.923z
			 M480,455.923c0,13.232-10.768,24-24,24H40c-13.232,0-24-10.768-24-24v-16h464V455.923z"/>
	</g>
</g>
<g>
	<g>
		<path d="M328,103.923H168c-92.632,0-168,75.368-168,168c0,4.424,3.576,8,8,8h480c4.424,0,8-3.576,8-8
			C496,179.291,420.632,103.923,328,103.923z M16.208,263.923c4.176-80.112,70.664-144,151.792-144h160
			c81.128,0,147.616,63.888,151.792,144H16.208z"/>
	</g>
</g>
<g>
	<g>
		<path d="M248.008,64.067c-12.328,0-23.896,5.176-32.552,14.576l11.768,10.848c11.192-12.152,30.376-12.152,41.56,0l11.768-10.848
			C271.896,69.243,260.336,64.067,248.008,64.067z"/>
	</g>
</g>
<g>
	<g>
		<path d="M189.616,53.859l10.096,12.408c26.624-21.672,69.952-21.672,96.576,0l10.096-12.408
			C274.2,27.659,221.808,27.659,189.616,53.859z"/>
	</g>
</g>
<g>
	<g>
		<path d="M162.816,29.963l10.36,12.2c41.256-35.016,108.392-35.016,149.64,0l10.36-12.2
			C286.208-9.885,209.784-9.885,162.816,29.963z"/>
	</g>
</g>
<g>
	<g>
		<rect x="144" y="167.923" width="16" height="32"/>
	</g>
</g>
<g>
	<g>
		<rect x="208" y="167.923" width="16" height="32"/>
	</g>
</g>
<g>
	<g>
		<rect x="272" y="167.923" width="16" height="32"/>
	</g>
</g>
<g>
	<g>
		<rect x="336" y="167.923" width="16" height="32"/>
	</g>
</g>
<g>
</g>
<g>
</g>
<g>
</g>
<g>
</g>
<g>
</g>
<g>
</g>
<g>
</g>
<g>
</g>
<g>
</g>
<g>
</g>
<g>
</g>
<g>
</g>
<g>
</g>
<g>
</g>
<g>
</g>
</svg>
