<?xml version="1.0" encoding="iso-8859-1"?>
<!-- Generator: Adobe Illustrator 19.0.0, SVG Export Plug-In . SVG Version: 6.00 Build 0)  -->
<svg version="1.1" id="Capa_1" xmlns="http://www.w3.org/2000/svg" xmlns:xlink="http://www.w3.org/1999/xlink" x="0px" y="0px"
	 viewBox="0 0 496 496" style="enable-background:new 0 0 496 496;" xml:space="preserve">
<g>
	<g>
		<path d="M488,336h-16V40c0-22.056-17.944-40-40-40H64C41.944,0,24,17.944,24,40v296H8c-4.424,0-8,3.584-8,8v8
			c0,22.056,17.944,40,40,40h416c22.056,0,40-17.944,40-40v-8C496,339.584,492.424,336,488,336z M40,40c0-13.232,10.768-24,24-24
			h368c13.232,0,24,10.768,24,24v296H40V40z M456,376H40c-13.232,0-24-10.768-24-24h16h432h16C480,365.232,469.232,376,456,376z"/>
	</g>
</g>
<g>
	<g>
		<path d="M432,32H64c-4.424,0-8,3.584-8,8v272c0,4.416,3.576,8,8,8h368c4.424,0,8-3.584,8-8V40C440,35.584,436.424,32,432,32z
			 M424,304H72V48h352V304z"/>
	</g>
</g>
<g>
	<g>
		<path d="M232,64c-13.248,0-24.32,9.504-26.336,22.6l-13.568,88.184c-0.536,3.432,1.216,6.816,4.328,8.376L224,196.952V288h16V72
			C240,67.584,236.424,64,232,64z M224,179.056l-15.2-7.6l12.68-82.432c0.32-2.088,1.216-3.952,2.52-5.432V179.056z"/>
	</g>
</g>
<g>
	<g>
		<path d="M160,64v48h-16V64h-16v48h-16V64H96v56v16c0,13.232,10.768,24,24,24h8v128h16V160h8c13.232,0,24-10.768,24-24v-16V64H160z
			 M160,136c0,4.408-3.584,8-8,8h-32c-4.416,0-8-3.592-8-8v-8h48V136z"/>
	</g>
</g>
<g>
	<g>
		<path d="M374.144,198.832l11.312-11.312c1.896-1.904,2.72-4.632,2.176-7.264c-0.536-2.632-2.368-4.824-4.864-5.824L326.2,151.8
			c-2.96-1.176-6.36-0.488-8.624,1.776c-2.264,2.264-2.96,5.656-1.776,8.632l22.632,56.568c1,2.496,3.184,4.32,5.824,4.864
			c0.536,0.112,1.08,0.168,1.608,0.168c2.104,0,4.144-0.832,5.656-2.344l11.312-11.312l28.288,28.28l11.312-11.312L374.144,198.832z
			 M348.784,201.568l-11.192-27.976l27.976,11.192L348.784,201.568z"/>
	</g>
</g>
<g>
	<g>
		<path d="M328,120c-22.056,0-40,17.944-40,40c0,14.224,7.656,27.496,19.976,34.632l8.016-13.84
			C308.592,176.504,304,168.536,304,160c0-13.232,10.768-24,24-24c10.944,0,20.496,7.384,23.232,17.96l15.488-4.008
			C362.16,132.32,346.24,120,328,120z"/>
	</g>
</g>
<g>
	<g>
		<path d="M328,88c-39.704,0-72,32.304-72,72c0,36.248,27.088,66.96,63.008,71.44l1.984-15.872C293.064,212.08,272,188.192,272,160
			c0-30.88,25.128-56,56-56s56,25.12,56,56h16C400,120.304,367.704,88,328,88z"/>
	</g>
</g>
<g>
	<g>
		<rect x="296" y="248" width="16" height="16"/>
	</g>
</g>
<g>
	<g>
		<rect x="328" y="248" width="16" height="16"/>
	</g>
</g>
<g>
	<g>
		<rect x="360" y="248" width="16" height="16"/>
	</g>
</g>
<g>
	<g>
		<path d="M487.688,413.792C486.704,410.36,483.568,408,480,408H16c-3.568,0-6.704,2.36-7.688,5.792s0.424,7.096,3.448,8.992l64,40
			c0.712,0.44,1.496,0.776,2.304,0.976L136,478.248V488c0,4.416,3.576,8,8,8h208c4.424,0,8-3.584,8-8v-9.752l57.936-14.488
			c0.816-0.2,1.592-0.536,2.304-0.976l64-40C487.264,420.888,488.672,417.224,487.688,413.792z M412.832,448.544l-62.776,15.688
			c-3.56,0.888-6.064,4.088-6.064,7.76v8h-192v-8c0-3.672-2.504-6.872-6.064-7.76l-62.776-15.688L43.888,424h408.216
			L412.832,448.544z"/>
	</g>
</g>
<g>
</g>
<g>
</g>
<g>
</g>
<g>
</g>
<g>
</g>
<g>
</g>
<g>
</g>
<g>
</g>
<g>
</g>
<g>
</g>
<g>
</g>
<g>
</g>
<g>
</g>
<g>
</g>
<g>
</g>
</svg>
