<?xml version="1.0" encoding="iso-8859-1"?>
<!-- Generator: Adobe Illustrator 19.0.0, SVG Export Plug-In . SVG Version: 6.00 Build 0)  -->
<svg version="1.1" id="Capa_1" xmlns="http://www.w3.org/2000/svg" xmlns:xlink="http://www.w3.org/1999/xlink" x="0px" y="0px"
	 viewBox="0 0 496 496" style="enable-background:new 0 0 496 496;" xml:space="preserve">
<g>
	<g>
		<path d="M488,80c-22.056,0-40,17.944-40,40v56h-64V80c0-4.424-3.576-8-8-8H128c-4.424,0-8,3.576-8,8v96H48v-56
			c0-22.056-17.944-40-40-40c-4.424,0-8,3.576-8,8v168v32v104h16v-96h104v120c0,4.424,3.576,8,8,8h32c4.424,0,8-3.576,8-8v-88h168
			v88c0,4.424,3.576,8,8,8h32c4.424,0,8-3.576,8-8V296h96v96h16V288v-32V88C496,83.576,492.424,80,488,80z M120,280H16v-24V97.368
			c9.312,3.304,16,12.2,16,22.632v64v72c0,4.424,3.576,8,8,8h80V280z M120,248H48v-56h72V248z M368,408h-16v-88c0-4.424-3.576-8-8-8
			H160c-4.424,0-8,3.576-8,8v88h-16V296h232V408z M368,184v72v24H136v-24v-72V88h232V184z M384,192h64v56h-64V192z M480,256v24h-96
			v-16h72c4.424,0,8-3.576,8-8v-72v-64c0-10.432,6.688-19.328,16-22.632V256z"/>
	</g>
</g>
<g>
	<g>
		<path d="M208,136h-48c-4.424,0-8,3.576-8,8v80c0,4.424,3.576,8,8,8h48c4.424,0,8-3.576,8-8v-80C216,139.576,212.424,136,208,136z
			 M200,216h-32v-64h32V216z"/>
	</g>
</g>
<g>
	<g>
		<path d="M344,136h-48c-4.424,0-8,3.576-8,8v80c0,4.424,3.576,8,8,8h48c4.424,0,8-3.576,8-8v-80C352,139.576,348.424,136,344,136z
			 M336,216h-32v-64h32V216z"/>
	</g>
</g>
<g>
</g>
<g>
</g>
<g>
</g>
<g>
</g>
<g>
</g>
<g>
</g>
<g>
</g>
<g>
</g>
<g>
</g>
<g>
</g>
<g>
</g>
<g>
</g>
<g>
</g>
<g>
</g>
<g>
</g>
</svg>
