<?xml version="1.0" encoding="iso-8859-1"?>
<!-- Generator: Adobe Illustrator 19.0.0, SVG Export Plug-In . SVG Version: 6.00 Build 0)  -->
<svg version="1.1" id="Capa_1" xmlns="http://www.w3.org/2000/svg" xmlns:xlink="http://www.w3.org/1999/xlink" x="0px" y="0px"
	 viewBox="0 0 496 496" style="enable-background:new 0 0 496 496;" xml:space="preserve">
<g>
	<g>
		<path d="M88,92c-6.168,0-11.744,2.4-16,6.24C67.744,94.4,62.168,92,56,92c-6.168,0-11.744,2.4-16,6.24
			C35.744,94.4,30.168,92,24,92c-13.232,0-24,10.768-24,24v80c0,13.232,10.768,24,24,24h8v200c0,13.232,10.768,24,24,24
			s24-10.768,24-24V220h8c13.232,0,24-10.768,24-24v-80C112,102.768,101.232,92,88,92z M96,196c0,4.416-3.592,8-8,8H72
			c-4.416,0-8,3.576-8,8v208c0,4.416-3.592,8-8,8s-8-3.584-8-8V212c0-4.424-3.584-8-8-8H24c-4.408,0-8-3.584-8-8v-80
			c0-4.416,3.592-8,8-8s8,3.584,8,8v64h16v-64c0-4.416,3.592-8,8-8s8,3.584,8,8v64h16v-64c0-4.416,3.592-8,8-8s8,3.584,8,8V196z"/>
	</g>
</g>
<g>
	<g>
		<path d="M488,92c-22.416,0-41.592,16.008-45.592,38.056l-26.28,144.52c-0.64,3.504,1.112,6.992,4.296,8.584L448,296.952V420
			c0,13.232,10.768,24,24,24s24-10.768,24-24V100C496,95.576,492.416,92,488,92z M472,428c-4.408,0-8-3.584-8-8V292
			c0-3.032-1.712-5.8-4.424-7.16l-26.632-13.312l25.2-138.616c2.128-11.72,10.808-20.832,21.848-23.84V420H480
			C480,424.416,476.408,428,472,428z"/>
	</g>
</g>
<g>
	<g>
		<path d="M399.504,212.008C394.52,167.216,348.232,132,292,132c-36.264,0-69.888,14.672-89.952,39.248
			c-15.288,18.744-35.52,34.376-60.12,46.472c-27.2,13.368-43.84,34.952-45.584,58.28H96v52c0,41.904,48.448,76,108,76
			c32.232,0,62.488-9.92,83-27.224c14.008-11.824,30.768-21.392,51.224-29.264C375.752,333.064,400,301.856,400,268.008v-56H399.504
			z M384,268c0,27.176-20.224,52.52-51.528,64.568c-22.144,8.528-40.392,18.984-55.784,31.968C259.008,379.456,232.52,388,204,388
			c-50.728,0-92-26.912-92-60v-8.392C131.008,341.392,165.08,356,204,356c32.232,0,62.488-9.92,83-27.224
			c14.008-11.824,30.768-21.392,51.224-29.264c19.264-7.416,34.992-19.272,45.776-33.608V268z M332.472,284.568
			c-22.144,8.528-40.392,18.984-55.784,31.968C259.008,331.456,232.52,340,204,340c-50.728,0-92-26.912-92-60
			c0-18.624,13.824-36.536,36.984-47.92c26.68-13.12,48.712-30.176,65.464-50.72C231.496,160.472,260.488,148,292,148
			c50.728,0,92,32.296,92,72C384,247.176,363.776,272.52,332.472,284.568z"/>
	</g>
</g>
<g>
	<g>
		<path d="M296,164c-17.648,0-32,14.352-32,32s14.352,32,32,32s32-14.352,32-32S313.648,164,296,164z M296,212
			c-8.824,0-16-7.176-16-16c0-8.824,7.176-16,16-16c8.824,0,16,7.176,16,16C312,204.824,304.824,212,296,212z"/>
	</g>
</g>
<g>
	<g>
		<rect x="152" y="260" width="160" height="16"/>
	</g>
</g>
<g>
	<g>
		<rect x="192" y="228" width="64" height="16"/>
	</g>
</g>
<g>
	<g>
		<rect x="144" y="292" width="120" height="16"/>
	</g>
</g>
<g>
	<g>
		<path d="M224,52v16c0,4.416-3.592,8-8,8h-32c-13.232,0-24,10.768-24,24v16h16v-16c0-4.416,3.592-8,8-8h32
			c13.232,0,24-10.768,24-24V52H224z"/>
	</g>
</g>
<g>
	<g>
		<path d="M312,52v16c0,4.416-3.592,8-8,8h-32c-13.232,0-24,10.768-24,24v16h16v-16c0-4.416,3.592-8,8-8h32
			c13.232,0,24-10.768,24-24V52H312z"/>
	</g>
</g>
<g>
	<g>
		<path d="M400,52v16c0,4.416-3.592,8-8,8h-32c-13.232,0-24,10.768-24,24v16h16v-16c0-4.416,3.592-8,8-8h32
			c13.232,0,24-10.768,24-24V52H400z"/>
	</g>
</g>
<g>
</g>
<g>
</g>
<g>
</g>
<g>
</g>
<g>
</g>
<g>
</g>
<g>
</g>
<g>
</g>
<g>
</g>
<g>
</g>
<g>
</g>
<g>
</g>
<g>
</g>
<g>
</g>
<g>
</g>
</svg>
