<?xml version="1.0" encoding="iso-8859-1"?>
<!-- Generator: Adobe Illustrator 19.0.0, SVG Export Plug-In . SVG Version: 6.00 Build 0)  -->
<svg version="1.1" id="Capa_1" xmlns="http://www.w3.org/2000/svg" xmlns:xlink="http://www.w3.org/1999/xlink" x="0px" y="0px"
	 viewBox="0 0 496 496" style="enable-background:new 0 0 496 496;" xml:space="preserve">
<g>
	<g>
		<path d="M480,445.368V420c0-4.424-3.584-8-8-8h-8c-10.416,0-19.216-6.712-22.528-16H448c17.648,0,32-14.36,32-32
			c0-2.12-0.848-4.16-2.344-5.656L464,344.688V308c0-110.984-84.16-202.656-192-214.632V68c17.648,0,32-14.352,32-32
			S289.648,4,272,4h-48c-17.648,0-32,14.352-32,32s14.352,32,32,32v25.368C116.152,105.352,32,197.016,32,308v36.688l-13.656,13.656
			C16.84,359.84,16,361.88,16,364c0,17.648,14.352,32,32,32h6.528c-3.312,9.288-12.112,16-22.528,16h-8c-4.416,0-8,3.576-8,8v25.368
			C6.688,448.672,0,457.568,0,468c0,13.232,10.768,24,24,24h448c13.232,0,24-10.768,24-24C496,457.568,489.312,448.672,480,445.368z
			 M208,36c0-8.824,7.176-16,16-16h48c8.824,0,16,7.176,16,16s-7.176,16-16,16h-48C215.176,52,208,44.824,208,36z M256,68v24.2
			c-2.656-0.096-5.32-0.2-8-0.2s-5.344,0.104-8,0.2V68H256z M48,380c-7.792,0-14.296-5.592-15.712-12.976l13.368-13.368
			C47.152,352.16,48,350.12,48,348v-40c0-110.28,89.72-200,200-200s200,89.72,200,200v40c0,2.12,0.84,4.16,2.344,5.656
			l13.368,13.368C462.296,374.408,455.792,380,448,380H48z M432.2,412H63.792c3.544-4.672,6.184-10.056,7.4-16h353.616
			C426.024,401.944,428.664,407.328,432.2,412z M472,476H24c-4.408,0-8-3.584-8-8c0-4.416,3.592-8,8-8c4.416,0,8-3.576,8-8v-24h432
			v24c0,4.424,3.584,8,8,8c4.408,0,8,3.584,8,8C480,472.416,476.408,476,472,476z"/>
	</g>
</g>
<g>
	<g>
		<rect x="80" y="444" width="16" height="16"/>
	</g>
</g>
<g>
	<g>
		<rect x="48" y="444" width="16" height="16"/>
	</g>
</g>
<g>
	<g>
		<rect x="112" y="444" width="16" height="16"/>
	</g>
</g>
<g>
	<g>
		<path d="M384,188c-17.648,0-32-14.352-32-32c0-4.416-3.584-8-8-8c-4.416,0-8,3.584-8,8c0,17.648-14.352,32-32,32
			c-4.416,0-8,3.584-8,8s3.584,8,8,8c17.648,0,32,14.352,32,32c0,4.416,3.584,8,8,8c4.416,0,8-3.584,8-8c0-17.648,14.352-32,32-32
			c4.416,0,8-3.584,8-8S388.416,188,384,188z M344,209.496c-3.552-5.344-8.152-9.936-13.496-13.496
			c5.344-3.552,9.936-8.152,13.496-13.496c3.552,5.344,8.152,9.936,13.488,13.496C352.152,199.552,347.552,204.152,344,209.496z"/>
	</g>
</g>
<g>
</g>
<g>
</g>
<g>
</g>
<g>
</g>
<g>
</g>
<g>
</g>
<g>
</g>
<g>
</g>
<g>
</g>
<g>
</g>
<g>
</g>
<g>
</g>
<g>
</g>
<g>
</g>
<g>
</g>
</svg>
