<?xml version="1.0" encoding="iso-8859-1"?>
<!-- Generator: Adobe Illustrator 19.0.0, SVG Export Plug-In . SVG Version: 6.00 Build 0)  -->
<svg version="1.1" id="Capa_1" xmlns="http://www.w3.org/2000/svg" xmlns:xlink="http://www.w3.org/1999/xlink" x="0px" y="0px"
	 viewBox="0 0 496 496" style="enable-background:new 0 0 496 496;" xml:space="preserve">
<g>
	<g>
		<path d="M495.912,151.544c-0.008-0.144,0.056-0.28,0.04-0.424l-16-144C479.504,3.064,476.08,0,472,0H24
			c-4.08,0-7.496,3.064-7.952,7.12l-16,144c-0.016,0.144,0.048,0.28,0.04,0.424C0.08,151.704,0,151.84,0,152v24v280
			c0,22.056,17.944,40,40,40h320h96c22.056,0,40-17.944,40-40V176v-24C496,151.84,495.92,151.704,495.912,151.544z M448,16h16.84
			l14.224,128H448V16z M400,16h32v128h-32V16z M400,160h32v16c0,8.824-7.176,16-16,16c-8.824,0-16-7.176-16-16V160z M352,16h32v128
			h-32V16z M352,160h32v16c0,8.824-7.176,16-16,16c-8.824,0-16-7.176-16-16V160z M304,16h32v128h-32V16z M304,160h32v16
			c0,8.824-7.176,16-16,16c-8.824,0-16-7.176-16-16V160z M256,16h32v128h-32V16z M256,160h32v16c0,8.824-7.176,16-16,16
			c-8.824,0-16-7.176-16-16V160z M208,16h32v128h-32V16z M208,160h32v16c0,8.824-7.176,16-16,16c-8.824,0-16-7.176-16-16V160z
			 M160,16h32v128h-32V16z M160,160h32v16c0,8.824-7.176,16-16,16c-8.824,0-16-7.176-16-16V160z M112,16h32v128h-32V16z M112,160h32
			v16c0,8.824-7.176,16-16,16c-8.824,0-16-7.176-16-16V160z M64,16h32v128H64V16z M64,160h32v16c0,8.824-7.176,16-16,16
			s-16-7.176-16-16V160z M31.16,16H48v128H16.936L31.16,16z M16,160h32v16c0,8.824-7.176,16-16,16s-16-7.176-16-16V160z M400,480
			h-32v-32h32V480z M400,432h-32v-32h32V432z M400,384h-32v-32h32V384z M400,336h-31.192C372,320.352,384.352,308,400,304.808V336z
			 M448,480h-32v-32h32V480z M448,432h-32v-32h32V432z M448,384h-32v-32h32V384z M416,336v-31.192
			C431.648,308,444,320.352,447.192,336H416z M480,456c0,10.416-6.704,19.216-16,22.528V344c0-30.88-25.12-56-56-56s-56,25.12-56,56
			v136H40c-13.232,0-24-10.768-24-24V203.552C20.728,206.304,26.144,208,32,208c9.6,0,18.128-4.336,24-11.056
			C61.872,203.664,70.4,208,80,208s18.128-4.336,24-11.056c5.872,6.72,14.4,11.056,24,11.056c9.6,0,18.128-4.336,24-11.056
			c5.872,6.72,14.4,11.056,24,11.056c9.6,0,18.128-4.336,24-11.056c5.872,6.72,14.4,11.056,24,11.056c9.6,0,18.128-4.336,24-11.056
			c5.872,6.72,14.4,11.056,24,11.056c9.6,0,18.128-4.336,24-11.056c5.872,6.72,14.4,11.056,24,11.056c9.6,0,18.128-4.336,24-11.056
			c5.872,6.72,14.4,11.056,24,11.056c9.6,0,18.128-4.336,24-11.056c5.872,6.72,14.4,11.056,24,11.056c9.6,0,18.128-4.336,24-11.056
			c5.872,6.72,14.4,11.056,24,11.056c5.856,0,11.272-1.696,16-4.448V456z M480,176c0,8.824-7.176,16-16,16c-8.824,0-16-7.176-16-16
			v-16h32V176z"/>
	</g>
</g>
<g>
	<g>
		<path d="M328,256H40c-4.416,0-8,3.584-8,8v160c0,4.416,3.584,8,8,8h288c4.416,0,8-3.584,8-8V264C336,259.584,332.416,256,328,256z
			 M96,416H80v-46.632c9.312,3.304,16,12.2,16,22.632V416z M288,416h-16v-24c0-10.432,6.688-19.328,16-22.632V416z M320,416h-16v-56
			c0-4.416-3.584-8-8-8c-22.056,0-40,17.944-40,40v24h-64v-16h48v-16H128v16h48v16h-64v-24c0-22.056-17.944-40-40-40
			c-4.416,0-8,3.584-8,8v56H48V272h272V416z"/>
	</g>
</g>
<g>
</g>
<g>
</g>
<g>
</g>
<g>
</g>
<g>
</g>
<g>
</g>
<g>
</g>
<g>
</g>
<g>
</g>
<g>
</g>
<g>
</g>
<g>
</g>
<g>
</g>
<g>
</g>
<g>
</g>
</svg>
