<?xml version="1.0" encoding="iso-8859-1"?>
<!-- Generator: Adobe Illustrator 19.0.0, SVG Export Plug-In . SVG Version: 6.00 Build 0)  -->
<svg version="1.1" id="Capa_1" xmlns="http://www.w3.org/2000/svg" xmlns:xlink="http://www.w3.org/1999/xlink" x="0px" y="0px"
	 viewBox="0 0 496.562 496.562" style="enable-background:new 0 0 496.562 496.562;" xml:space="preserve">
<g>
	<g>
		<path d="M253.442,273.762c-1.96-1.512-4.512-2.024-6.912-1.4L95.522,312.098h-54.96c-22.056,0-40,17.944-40,40v48
			c0,4.424,3.584,8,8,8h8v48c0,22.056,17.944,40,40,40h24c4.416,0,8-3.576,8-8v-80h6.976l150.992,39.736
			c0.672,0.176,1.352,0.264,2.032,0.264c1.752,0,3.472-0.568,4.88-1.664c1.968-1.512,3.12-3.848,3.12-6.336v-160
			C256.562,277.618,255.41,275.274,253.442,273.762z M72.562,480.098h-16c-13.232,0-24-10.768-24-24v-48h40V480.098z
			 M88.562,392.098h-8h-56h-8v-40c0-13.232,10.768-24,24-24h48V392.098z M240.562,429.722l-136-35.792v-67.664l136-35.792V429.722z"
			/>
	</g>
</g>
<g>
	<g>
		<path d="M494.714,354.978l-16.616-19.944l4.424-25.584c0.656-3.808-1.504-7.544-5.128-8.872l-24.368-8.936l-8.936-24.376
			c-1.336-3.632-5.104-5.792-8.872-5.128l-25.584,4.424l-19.944-16.616c-2.968-2.472-7.272-2.472-10.24,0l-19.944,16.616
			l-25.584-4.424c-3.8-0.664-7.544,1.496-8.872,5.128l-8.936,24.368l-24.376,8.936c-3.632,1.336-5.792,5.064-5.128,8.872
			l4.424,25.584l-16.616,19.944c-2.464,2.968-2.464,7.272,0,10.24l16.616,19.952l-4.424,25.576
			c-0.664,3.808,1.504,7.544,5.128,8.872l24.368,8.936l8.936,24.368c1.336,3.632,5.072,5.768,8.872,5.136l25.584-4.424
			l19.944,16.608c1.48,1.248,3.304,1.864,5.12,1.864c1.816,0,3.64-0.616,5.12-1.848l19.944-16.608l25.584,4.424
			c3.776,0.632,7.544-1.504,8.872-5.136l8.936-24.368l24.376-8.936c3.632-1.328,5.792-5.064,5.128-8.872l-4.424-25.576
			l16.616-19.952C497.178,362.25,497.178,357.946,494.714,354.978z M463.434,377.762c-1.504,1.808-2.136,4.168-1.736,6.488
			l3.92,22.648l-21.592,7.912c-2.208,0.808-3.952,2.544-4.76,4.76l-7.912,21.576l-22.648-3.912c-2.304-0.4-4.68,0.24-6.488,1.736
			l-17.664,14.712L366.89,438.97c-1.448-1.2-3.264-1.856-5.12-1.856c-0.456,0-0.912,0.04-1.36,0.12l-22.648,3.912l-7.912-21.576
			c-0.808-2.208-2.552-3.952-4.76-4.76l-21.584-7.912l3.92-22.648c0.4-2.32-0.232-4.68-1.736-6.488l-14.72-17.664l14.712-17.664
			c1.504-1.808,2.136-4.168,1.736-6.488l-3.92-22.648l21.592-7.912c2.208-0.808,3.952-2.552,4.76-4.76l7.912-21.584l22.648,3.92
			c2.312,0.4,4.68-0.232,6.488-1.736l17.664-14.712l17.664,14.712c1.808,1.504,4.176,2.136,6.488,1.736l22.648-3.92l7.912,21.592
			c0.808,2.208,2.552,3.952,4.76,4.76l21.584,7.912l-3.92,22.648c-0.4,2.312,0.232,4.68,1.736,6.488l14.72,17.656L463.434,377.762z"
			/>
	</g>
</g>
<g>
	<g>
		
			<rect x="325.097" y="348.106" transform="matrix(0.6727 -0.7399 0.7399 0.6727 -137.6218 401.0901)" width="118.927" height="16"/>
	</g>
</g>
<g>
	<g>
		<path d="M356.562,312.098c-11.024,0-20,8.976-20,20s8.976,20,20,20s20-8.976,20-20S367.586,312.098,356.562,312.098z
			 M356.562,336.098c-2.208,0-4-1.792-4-4s1.792-4,4-4s4,1.792,4,4S358.77,336.098,356.562,336.098z"/>
	</g>
</g>
<g>
	<g>
		<path d="M412.562,360.098c-11.024,0-20,8.976-20,20c0,11.032,8.976,20,20,20s20-8.968,20-20
			C432.562,369.074,423.586,360.098,412.562,360.098z M412.562,384.098c-2.208,0-4-1.792-4-4s1.792-4,4-4s4,1.792,4,4
			S414.77,384.098,412.562,384.098z"/>
	</g>
</g>
<g>
	<g>
		<path d="M144.73,64.65c-0.944-2.896-3.448-5.008-6.464-5.448L97.818,53.33L79.73,16.674c-2.696-5.464-11.656-5.464-14.352,0
			L47.298,53.33l-40.44,5.872c-3.016,0.44-5.52,2.552-6.464,5.448c-0.944,2.896-0.16,6.072,2.024,8.2l29.272,28.528l-6.912,40.288
			c-0.512,3,0.72,6.032,3.184,7.824c2.472,1.792,5.736,2.024,8.424,0.608l36.176-19.016l36.176,19.016
			c1.168,0.616,2.448,0.92,3.72,0.92c1.656,0,3.312-0.512,4.704-1.528c2.464-1.792,3.696-4.824,3.184-7.824l-6.912-40.288
			l29.272-28.528C144.882,70.722,145.674,67.546,144.73,64.65z M99.258,92.858c-1.88,1.84-2.744,4.488-2.304,7.08l4.88,28.456
			l-25.552-13.432c-1.168-0.616-2.448-0.92-3.72-0.92c-1.28,0-2.56,0.304-3.72,0.92L43.29,128.394l4.88-28.456
			c0.44-2.592-0.416-5.24-2.304-7.08L25.194,72.706l28.568-4.144c2.608-0.384,4.856-2.016,6.024-4.384L72.562,38.29l12.776,25.888
			c1.168,2.36,3.416,4,6.024,4.376l28.568,4.152L99.258,92.858z"/>
	</g>
</g>
<g>
	<g>
		<path d="M446.21,33.274c-0.944-2.896-3.448-5.008-6.456-5.448l-22.128-3.216l-9.888-20.048c-2.696-5.464-11.656-5.464-14.352,0
			l-9.888,20.048l-22.128,3.216c-3.008,0.44-5.52,2.552-6.456,5.448c-0.944,2.896-0.16,6.08,2.024,8.2l16.008,15.6l-3.776,22.032
			c-0.512,3,0.712,6.032,3.176,7.824c2.472,1.792,5.736,2.024,8.424,0.608l19.792-10.4l19.792,10.4
			c1.176,0.616,2.448,0.92,3.72,0.92c1.656,0,3.312-0.512,4.704-1.528c2.464-1.792,3.696-4.824,3.176-7.824l-3.776-22.032
			l16.008-15.6C446.37,39.346,447.154,36.17,446.21,33.274z M414.002,48.546c-1.888,1.84-2.752,4.488-2.304,7.08l1.752,10.2
			l-9.168-4.816c-1.16-0.608-2.44-0.912-3.72-0.912c-1.28,0-2.56,0.304-3.72,0.92l-9.16,4.816l1.752-10.2
			c0.448-2.592-0.416-5.24-2.304-7.08l-7.408-7.224l10.24-1.496c2.608-0.376,4.856-2.016,6.024-4.376l4.576-9.28l4.576,9.28
			c1.168,2.36,3.416,4,6.024,4.376l10.248,1.488L414.002,48.546z"/>
	</g>
</g>
<g>
	<g>
		<path d="M291.602,132.714c-0.944-2.896-3.448-5.008-6.464-5.448l-14.792-2.152l-6.616-13.4c-2.696-5.464-11.656-5.464-14.352,0
			l-6.616,13.4l-14.792,2.152c-3.016,0.44-5.52,2.552-6.464,5.448c-0.944,2.896-0.16,6.072,2.024,8.2l10.72,10.432l-2.528,14.736
			c-0.512,3,0.72,6.032,3.184,7.824c2.472,1.792,5.728,2.024,8.424,0.608l13.232-6.96l13.232,6.96c1.168,0.616,2.448,0.92,3.72,0.92
			c1.656,0,3.312-0.512,4.704-1.528c2.464-1.792,3.696-4.824,3.184-7.824l-2.528-14.736l10.704-10.432
			C291.762,138.786,292.546,135.61,291.602,132.714z M264.69,142.826c-1.888,1.84-2.744,4.488-2.304,7.08l0.496,2.904l-2.608-1.368
			c-1.168-0.616-2.448-0.92-3.72-0.92c-1.272,0-2.56,0.304-3.72,0.92l-2.608,1.368l0.496-2.904c0.44-2.592-0.416-5.24-2.304-7.08
			l-2.112-2.056l2.928-0.424c2.608-0.376,4.856-2.016,6.024-4.376l1.304-2.64l1.304,2.64c1.168,2.36,3.416,4,6.024,4.376
			l2.912,0.424L264.69,142.826z"/>
	</g>
</g>
<g>
	<g>
		<path d="M136.562,112.098v16c44.112,0,80,53.832,80,120h16C232.562,173.106,189.498,112.098,136.562,112.098z"/>
	</g>
</g>
<g>
	<g>
		<path d="M64.562,152.098v16c44.112,0,80,46.648,80,104h16C160.562,205.93,117.498,152.098,64.562,152.098z"/>
	</g>
</g>
<g>
	<g>
		<path d="M304.562,96.098h16c0-17.648,14.352-32,32-32v-16C326.09,48.098,304.562,69.626,304.562,96.098z"/>
	</g>
</g>
<g>
	<g>
		<path d="M312.562,232.098h16c0-48.52,35.888-88,80-88v-16C355.626,128.098,312.562,174.746,312.562,232.098z"/>
	</g>
</g>
<g>
	<g>
		<path d="M248.562,192.098v16c17.648,0,32,17.944,32,40h16C296.562,217.218,275.034,192.098,248.562,192.098z"/>
	</g>
</g>
<g>
</g>
<g>
</g>
<g>
</g>
<g>
</g>
<g>
</g>
<g>
</g>
<g>
</g>
<g>
</g>
<g>
</g>
<g>
</g>
<g>
</g>
<g>
</g>
<g>
</g>
<g>
</g>
<g>
</g>
</svg>
