<?xml version="1.0" encoding="iso-8859-1"?>
<!-- Generator: Adobe Illustrator 19.0.0, SVG Export Plug-In . SVG Version: 6.00 Build 0)  -->
<svg version="1.1" id="Capa_1" xmlns="http://www.w3.org/2000/svg" xmlns:xlink="http://www.w3.org/1999/xlink" x="0px" y="0px"
	 viewBox="0 0 496 496" style="enable-background:new 0 0 496 496;" xml:space="preserve">
<g>
	<g>
		<path d="M384.808,376h-11.392l-25.6-64H468c15.44,0,28-12.56,28-28s-12.56-28-28-28H265.632L422.024,77.272
			c2.632-3.016,2.632-7.52,0-10.536l-56-64C364.496,1,362.304,0,360,0H136c-2.304,0-4.504,1-6.024,2.728l-56,64
			c-2.632,3.016-2.632,7.52,0,10.536L230.368,256H28c-15.44,0-28,12.56-28,28s12.56,28,28,28h33.36
			c-1.168,3.032-1.768,6.28-1.68,9.648c0.168,6.92,3.096,13.288,8.184,17.888l141.544,129.936
			c7.408,6.792,17.016,10.528,27.056,10.528H384v16h16V384c0-13.232,10.768-24,24-24h72v-16h-72
			C404.688,344,388.528,357.768,384.808,376z M265.816,231.488L310,80h88.368L265.816,231.488z M360,20.152L398.368,64h-76.736
			L360,20.152z M342.368,16L304,59.848L265.632,16H342.368z M286.368,64h-76.736L248,20.152L286.368,64z M230.368,16L192,59.848
			L153.632,16H230.368z M136,20.152L174.368,64H97.632L136,20.152z M97.632,80H186l44.184,151.488L97.632,80z M202.664,80h90.664
			L248,235.432L202.664,80z M28,296c-6.616,0-12-5.384-12-12c0-6.616,5.384-12,12-12h440c6.616,0,12,5.384,12,12
			c0,6.616-5.384,12-12,12H336h-32H28z M251.312,312H296v67.056l-47.328,23.664l4.048-81.336
			C252.88,318.128,252.376,314.96,251.312,312z M200.112,374.112l-0.096,1.28l0.824,0.064l18,33.112l-53.016-47.928l-13.088-35.792
			c-1.064-2.488-0.984-5.184,0.208-7.608c1.2-2.424,3.312-4.112,5.928-4.768c3.944-0.992,8.072,0.784,9.992,4.152L200.112,374.112z
			 M184.576,312h21.336c-0.736,2.008-1.304,4.104-1.472,6.328l-2.048,26.448L184.576,312z M216.432,370.624l3.952-51.064
			c0.336-4.24,3.92-7.56,8.168-7.56c2.264,0,4.368,0.904,5.928,2.544s2.36,3.792,2.248,6.048l-3.984,80.04L216.432,370.624z
			 M137.88,330.744l2.52,6.904L112.016,312h25.92C135.472,318.152,135.392,324.968,137.88,330.744z M384,464H236.464
			c-6.024,0-11.792-2.248-16.232-6.32L78.64,327.704c-1.848-1.672-2.904-3.968-2.968-6.464c-0.064-2.496,0.872-4.832,2.64-6.6
			c3.368-3.376,8.808-3.528,12.32-0.408l61.52,55.608l0.328,0.904l0.48-0.176l65.672,59.36c2.464,2.216,6.008,2.696,8.944,1.224
			l80-40c2.712-1.352,4.424-4.128,4.424-7.16v-72h18.584l29.984,74.976c1.224,3.04,4.16,5.032,7.432,5.032h16V464z"/>
	</g>
</g>
<g>
	<g>
		<path d="M72,32C58.768,32,48,21.232,48,8c0-4.416-3.576-8-8-8s-8,3.584-8,8c0,13.232-10.768,24-24,24c-4.424,0-8,3.584-8,8
			s3.576,8,8,8c13.232,0,24,10.768,24,24c0,4.416,3.576,8,8,8s8-3.584,8-8c0-13.232,10.768-24,24-24c4.424,0,8-3.584,8-8
			S76.424,32,72,32z M40,48.024c-2.28-3.04-4.984-5.744-8.024-8.024c3.04-2.28,5.744-4.984,8.024-8.024
			c2.28,3.04,4.984,5.744,8.024,8.024C44.984,42.28,42.28,44.984,40,48.024z"/>
	</g>
</g>
<g>
</g>
<g>
</g>
<g>
</g>
<g>
</g>
<g>
</g>
<g>
</g>
<g>
</g>
<g>
</g>
<g>
</g>
<g>
</g>
<g>
</g>
<g>
</g>
<g>
</g>
<g>
</g>
<g>
</g>
</svg>
