<?xml version="1.0" encoding="iso-8859-1"?>
<!-- Generator: Adobe Illustrator 19.0.0, SVG Export Plug-In . SVG Version: 6.00 Build 0)  -->
<svg version="1.1" id="Capa_1" xmlns="http://www.w3.org/2000/svg" xmlns:xlink="http://www.w3.org/1999/xlink" x="0px" y="0px"
	 viewBox="0 0 495.994 495.994" style="enable-background:new 0 0 495.994 495.994;" xml:space="preserve">
<g>
	<g>
		<path d="M197.661,354.338l-73.384-73.376l-28.28-28.28v-96.688c0-15.44-12.56-28-28-28s-28,12.56-28,28v176
			c0,1.792,0.6,3.52,1.696,4.928l70.304,89.832v69.24h16v-72c0-1.792-0.6-3.52-1.696-4.928l-70.304-89.832v-173.24
			c0-6.616,5.384-12,12-12c6.616,0,12,5.384,12,12v100c0,2.128,0.848,4.16,2.344,5.656l11.712,11.712
			c-12.704,3.736-22.056,15.368-22.056,29.256c0,8.192,3.184,15.872,8.976,21.656l49.368,49.376l11.312-11.312l-49.376-49.376
			c-2.72-2.728-4.28-6.496-4.28-10.344c0-8.064,6.56-14.624,14.632-14.624c3.896,0,7.568,1.52,10.328,4.264l1.392,1.392
			l69.656,69.656v132.688h16v-136C200.005,357.866,199.165,355.834,197.661,354.338z"/>
	</g>
</g>
<g>
	<g>
		<path d="M427.997,127.994c-15.44,0-28,12.56-28,28v96.688l-28.264,28.264c-0.008,0.008-0.016,0.008-0.024,0.016l-73.368,73.376
			c-1.496,1.496-2.344,3.528-2.344,5.656v136h16V363.306l69.656-69.664l1.408-1.408c2.76-2.728,6.416-4.24,10.304-4.24
			c8.064,0,14.632,6.56,14.632,14.624c0,3.856-1.56,7.616-4.288,10.344l-49.368,49.376l11.312,11.312l49.368-49.376
			c5.792-5.784,8.976-13.472,8.976-21.656c0-13.888-9.36-25.52-22.056-29.256l11.712-11.712c1.504-1.496,2.344-3.528,2.344-5.656
			v-100c0-6.616,5.384-12,12-12c6.616,0,12,5.384,12,12v173.24l-70.304,89.832c-1.096,1.408-1.696,3.136-1.696,4.928v72h16v-69.24
			l70.304-89.832c1.104-1.408,1.696-3.144,1.696-4.928v-176C455.997,140.554,443.437,127.994,427.997,127.994z"/>
	</g>
</g>
<g>
	<g>
		<path d="M328.389,216.066c-1.68-0.096-41.704-2.016-66.016,22.296c-2.392,2.392-4.464,4.968-6.368,7.608v-30.112
			c13.368-0.664,39.744-4.336,57.632-22.232c24.312-24.312,22.4-64.328,22.304-66.016c-0.224-4.08-3.48-7.328-7.544-7.544
			c-1.68-0.112-41.704-2.016-66.016,22.296c-2.392,2.392-4.464,4.968-6.368,7.608v-26.28c8.544-7.552,32-30.904,32-59.696
			c0-34.432-33.632-61.176-35.064-62.296c-2.896-2.264-6.968-2.264-9.864,0c-1.456,1.128-35.088,27.864-35.088,62.296
			c0,28.792,23.456,52.144,32,59.696v26.28c-1.912-2.64-3.976-5.216-6.368-7.608c-24.312-24.312-64.312-22.392-66.016-22.296
			c-4.072,0.216-7.32,3.472-7.544,7.544c-0.096,1.688-2.008,41.704,22.304,66.016c17.888,17.888,44.264,21.568,57.632,22.232v30.112
			c-1.912-2.64-3.976-5.216-6.368-7.608c-24.312-24.312-64.312-22.392-66.016-22.296c-4.072,0.216-7.32,3.472-7.544,7.544
			c-0.096,1.688-2.008,41.704,22.304,66.016c17.888,17.888,44.264,21.568,57.632,22.232v48.136h16v-48.136
			c13.352-0.664,39.728-4.336,57.616-22.232c24.312-24.312,22.4-64.328,22.304-66.016
			C335.709,219.53,332.453,216.282,328.389,216.066z M273.677,153.674c13.624-13.624,34.848-16.808,46.152-17.496
			c-0.664,11.272-3.824,32.44-17.512,46.136c-13.624,13.624-34.848,16.808-46.152,17.496
			C256.837,188.53,259.989,167.37,273.677,153.674z M193.677,182.314c-13.624-13.624-16.808-34.848-17.496-46.16
			c11.28,0.672,32.44,3.832,46.128,17.512c13.624,13.624,16.808,34.848,17.496,46.16
			C228.533,199.162,207.373,196.002,193.677,182.314z M193.677,278.314c-13.624-13.624-16.808-34.848-17.496-46.16
			c11.28,0.672,32.44,3.832,46.128,17.512c13.624,13.624,16.808,34.848,17.496,46.16
			C228.533,295.162,207.373,292.002,193.677,278.314z M247.997,109.29c-8.272-7.92-24-25.6-24-45.296s15.728-37.376,24-45.296
			c8.272,7.92,24,25.6,24,45.296S256.269,101.37,247.997,109.29z M302.317,278.314c-13.624,13.624-34.848,16.808-46.152,17.496
			c0.672-11.28,3.824-32.44,17.512-46.136c13.624-13.624,34.848-16.808,46.152-17.496
			C319.165,243.45,316.005,264.618,302.317,278.314z"/>
	</g>
</g>
<g>
</g>
<g>
</g>
<g>
</g>
<g>
</g>
<g>
</g>
<g>
</g>
<g>
</g>
<g>
</g>
<g>
</g>
<g>
</g>
<g>
</g>
<g>
</g>
<g>
</g>
<g>
</g>
<g>
</g>
</svg>
