<?xml version="1.0" encoding="iso-8859-1"?>
<!-- Generator: Adobe Illustrator 19.0.0, SVG Export Plug-In . SVG Version: 6.00 Build 0)  -->
<svg version="1.1" id="Capa_1" xmlns="http://www.w3.org/2000/svg" xmlns:xlink="http://www.w3.org/1999/xlink" x="0px" y="0px"
	 viewBox="0 0 496 496" style="enable-background:new 0 0 496 496;" xml:space="preserve">
<g>
	<g>
		<path d="M352,0H144c-22.056,0-40,17.944-40,40v416c0,22.056,17.944,40,40,40h208c22.056,0,40-17.944,40-40V40
			C392,17.944,374.056,0,352,0z M376,456c0,13.232-10.768,24-24,24H144c-13.232,0-24-10.768-24-24v-32h256V456z M376,408H120V88h256
			V408z M376,72H120V40c0-13.232,10.768-24,24-24h208c13.232,0,24,10.768,24,24V72z"/>
	</g>
</g>
<g>
	<g>
		<rect x="224" y="32" width="48" height="16"/>
	</g>
</g>
<g>
	<g>
		<path d="M312,288h-40v16h32v72H192v-72h32v-16h-40c-4.424,0-8,3.576-8,8v88c0,4.424,3.576,8,8,8h128c4.424,0,8-3.576,8-8v-88
			C320,291.576,316.424,288,312,288z"/>
	</g>
</g>
<g>
	<g>
		<path d="M272,120v48h-16v-48h-16v48h-16v-48h-16v56v16c0,13.232,10.768,24,24,24h8v116.688l-10.344-10.344l-11.312,11.312l24,24
			c1.56,1.56,3.608,2.344,5.656,2.344c2.048,0,4.096-0.784,5.656-2.344l24-24l-11.312-11.312L256,332.688V216h8
			c13.232,0,24-10.768,24-24v-16v-56H272z M272,192c0,4.416-3.584,8-8,8h-32c-4.416,0-8-3.584-8-8v-8h48V192z"/>
	</g>
</g>
<g>
</g>
<g>
</g>
<g>
</g>
<g>
</g>
<g>
</g>
<g>
</g>
<g>
</g>
<g>
</g>
<g>
</g>
<g>
</g>
<g>
</g>
<g>
</g>
<g>
</g>
<g>
</g>
<g>
</g>
</svg>
