<?xml version="1.0" encoding="iso-8859-1"?>
<!-- Generator: Adobe Illustrator 19.0.0, SVG Export Plug-In . SVG Version: 6.00 Build 0)  -->
<svg version="1.1" id="Capa_1" xmlns="http://www.w3.org/2000/svg" xmlns:xlink="http://www.w3.org/1999/xlink" x="0px" y="0px"
	 viewBox="0 0 496 496" style="enable-background:new 0 0 496 496;" xml:space="preserve">
<g>
	<g>
		<path d="M352,0H144c-22.056,0-40,17.944-40,40v416c0,22.056,17.944,40,40,40h208c22.056,0,40-17.944,40-40V40
			C392,17.944,374.056,0,352,0z M376,456c0,13.232-10.768,24-24,24H144c-13.232,0-24-10.768-24-24v-32h256V456z M376,408H120V88h256
			V408z M376,72H120V40c0-13.232,10.768-24,24-24h208c13.232,0,24,10.768,24,24V72z"/>
	</g>
</g>
<g>
	<g>
		<path d="M312,104c-13.184,0-24.28,9.872-25.816,22.96l-14.136,120.112c-0.384,3.344,1.36,6.576,4.376,8.088L304,268.952V392h16
			V112C320,107.584,316.424,104,312,104z M304,251.056l-15.4-7.696l13.48-114.536c0.208-1.808,0.896-3.448,1.92-4.816V251.056z"/>
	</g>
</g>
<g>
	<g>
		<path d="M232,104v48h-16v-48h-16v48h-16v-48h-16v56v16c0,13.232,10.768,24,24,24h8v192h16V200h8c13.232,0,24-10.768,24-24v-16v-56
			H232z M232,176c0,4.408-3.584,8-8,8h-32c-4.416,0-8-3.592-8-8v-8h48V176z"/>
	</g>
</g>
<g>
	<g>
		<rect x="224" y="32" width="48" height="16"/>
	</g>
</g>
<g>
</g>
<g>
</g>
<g>
</g>
<g>
</g>
<g>
</g>
<g>
</g>
<g>
</g>
<g>
</g>
<g>
</g>
<g>
</g>
<g>
</g>
<g>
</g>
<g>
</g>
<g>
</g>
<g>
</g>
</svg>
