<?xml version="1.0" encoding="iso-8859-1"?>
<!-- Generator: Adobe Illustrator 19.0.0, SVG Export Plug-In . SVG Version: 6.00 Build 0)  -->
<svg version="1.1" id="Capa_1" xmlns="http://www.w3.org/2000/svg" xmlns:xlink="http://www.w3.org/1999/xlink" x="0px" y="0px"
	 viewBox="0 0 496.002 496.002" style="enable-background:new 0 0 496.002 496.002;" xml:space="preserve">
<g>
	<g>
		<path d="M392.001,264.002h-59.6c4.216-15.416,3.576-31.464,3.544-32.304c-0.184-4.112-3.456-7.4-7.544-7.624
			c-1.68-0.096-41.712-2.008-66.024,22.296c-2.432,2.424-4.472,4.896-6.368,7.416v-37.92c13.368-0.664,39.744-4.336,57.632-22.232
			c24.312-24.312,22.392-64.328,22.296-66.024c-0.216-4.072-3.472-7.32-7.536-7.536c-1.68-0.104-41.712-2.008-66.024,22.296
			c-2.392,2.392-4.456,4.96-6.368,7.6v-26.272c8.536-7.552,32-30.904,32-59.704c0-34.432-33.632-61.176-35.064-62.296
			c-2.904-2.264-6.968-2.264-9.872,0c-1.44,1.136-35.072,27.872-35.072,62.304c0,28.792,23.464,52.144,32,59.704v26.272
			c-1.912-2.64-3.976-5.216-6.368-7.6c-24.304-24.304-64.328-22.408-66.024-22.296c-4.072,0.216-7.32,3.472-7.536,7.536
			c-0.096,1.696-2.016,41.712,22.296,66.024c17.888,17.888,44.264,21.568,57.632,22.232v37.92c-1.888-2.52-3.936-4.992-6.368-7.416
			c-24.304-24.304-64.328-22.4-66.024-22.296c-4.096,0.224-7.36,3.512-7.544,7.624c-0.04,0.84-0.672,16.888,3.536,32.304h-59.6
			c-4.424,0-8,3.576-8,8v80c0,56.88,35.128,107.288,88,127.192v8.8c0,4.424,3.576,8,8,8h112c4.424,0,8-3.576,8-8v-8.808
			c52.872-19.904,88-70.312,88-127.192v-80C400.001,267.578,396.425,264.002,392.001,264.002z M273.681,153.682
			c13.616-13.616,34.824-16.8,46.136-17.496c-0.696,11.304-3.872,32.52-17.496,46.136c-13.616,13.616-34.832,16.8-46.136,17.496
			C256.881,188.506,260.065,167.298,273.681,153.682z M193.681,182.322c-13.616-13.616-16.8-34.832-17.496-46.136
			c11.304,0.696,32.512,3.872,46.136,17.496c13.616,13.616,16.8,34.832,17.496,46.136
			C228.505,199.122,207.297,195.938,193.681,182.322z M273.681,257.682c13.64-13.64,34.888-16.816,46.176-17.496
			c-0.296,6.448-1.272,15.824-4.192,23.816h-47.424C269.793,261.85,271.577,259.786,273.681,257.682z M224.001,64.002
			c0-19.696,15.736-37.376,24-45.296c8.264,7.92,24,25.6,24,45.296s-15.736,37.376-24,45.296
			C239.737,101.378,224.001,83.698,224.001,64.002z M222.321,257.682c2.104,2.104,3.888,4.168,5.44,6.32h-47.424
			c-2.92-7.992-3.896-17.368-4.192-23.816C187.433,240.874,208.681,244.042,222.321,257.682z M384.001,352.002
			c0,51.912-33.16,97.704-82.504,113.936c-3.28,1.088-5.496,4.152-5.496,7.6v6.464h-96v-6.464c0-3.456-2.216-6.52-5.504-7.6
			c-49.344-16.232-82.496-62.024-82.496-113.936v-72h63.088h65.832h14.16h65.832h63.088V352.002z"/>
	</g>
</g>
<g>
	<g>
		<path d="M304.001,344.002h-24v-24c0-4.424-3.576-8-8-8h-48c-4.424,0-8,3.576-8,8v24h-24c-4.424,0-8,3.576-8,8v48
			c0,4.424,3.576,8,8,8h24v24c0,4.424,3.576,8,8,8h48c4.424,0,8-3.576,8-8v-24h24c4.424,0,8-3.576,8-8v-48
			C312.001,347.578,308.425,344.002,304.001,344.002z M296.001,392.002h-24c-4.424,0-8,3.576-8,8v24h-32v-24c0-4.424-3.576-8-8-8
			h-24v-32h24c4.424,0,8-3.576,8-8v-24h32v24c0,4.424,3.576,8,8,8h24V392.002z"/>
	</g>
</g>
<g>
</g>
<g>
</g>
<g>
</g>
<g>
</g>
<g>
</g>
<g>
</g>
<g>
</g>
<g>
</g>
<g>
</g>
<g>
</g>
<g>
</g>
<g>
</g>
<g>
</g>
<g>
</g>
<g>
</g>
</svg>
