<?xml version="1.0" encoding="iso-8859-1"?>
<!-- Generator: Adobe Illustrator 19.0.0, SVG Export Plug-In . SVG Version: 6.00 Build 0)  -->
<svg version="1.1" id="Capa_1" xmlns="http://www.w3.org/2000/svg" xmlns:xlink="http://www.w3.org/1999/xlink" x="0px" y="0px"
	 viewBox="0 0 496 496" style="enable-background:new 0 0 496 496;" xml:space="preserve">
<g>
	<g>
		<path d="M312,80H184c-22.056,0-40,17.944-40,40v256c0,22.056,17.944,40,40,40h128c22.056,0,40-17.944,40-40V120
			C352,97.944,334.056,80,312,80z M336,376c0,13.232-10.768,24-24,24H184c-13.232,0-24-10.768-24-24V120c0-13.232,10.768-24,24-24
			h128c13.232,0,24,10.768,24,24V376z"/>
	</g>
</g>
<g>
	<g>
		<path d="M248,0c-17.648,0-32,14.352-32,32s14.352,32,32,32s32-14.352,32-32S265.648,0,248,0z M248,48c-8.824,0-16-7.184-16-16
			s7.176-16,16-16c8.824,0,16,7.184,16,16S256.824,48,248,48z"/>
	</g>
</g>
<g>
	<g>
		<path d="M400,104c-17.648,0-32,14.352-32,32s14.352,32,32,32s32-14.352,32-32S417.648,104,400,104z M400,152
			c-8.824,0-16-7.176-16-16c0-8.824,7.176-16,16-16c8.824,0,16,7.176,16,16C416,144.824,408.824,152,400,152z"/>
	</g>
</g>
<g>
	<g>
		<path d="M400,216c-17.648,0-32,14.352-32,32s14.352,32,32,32s32-14.352,32-32S417.648,216,400,216z M400,264
			c-8.824,0-16-7.176-16-16c0-8.824,7.176-16,16-16c8.824,0,16,7.176,16,16C416,256.824,408.824,264,400,264z"/>
	</g>
</g>
<g>
	<g>
		<path d="M400,328c-17.648,0-32,14.352-32,32s14.352,32,32,32s32-14.352,32-32S417.648,328,400,328z M400,376
			c-8.824,0-16-7.176-16-16c0-8.824,7.176-16,16-16c8.824,0,16,7.176,16,16C416,368.824,408.824,376,400,376z"/>
	</g>
</g>
<g>
	<g>
		<path d="M96,104c-17.648,0-32,14.352-32,32s14.352,32,32,32s32-14.352,32-32S113.648,104,96,104z M96,152c-8.824,0-16-7.176-16-16
			c0-8.824,7.176-16,16-16s16,7.176,16,16C112,144.824,104.824,152,96,152z"/>
	</g>
</g>
<g>
	<g>
		<path d="M96,216c-17.648,0-32,14.352-32,32s14.352,32,32,32s32-14.352,32-32S113.648,216,96,216z M96,264c-8.824,0-16-7.176-16-16
			c0-8.824,7.176-16,16-16s16,7.176,16,16C112,256.824,104.824,264,96,264z"/>
	</g>
</g>
<g>
	<g>
		<path d="M96,328c-17.648,0-32,14.352-32,32s14.352,32,32,32s32-14.352,32-32S113.648,328,96,328z M96,376c-8.824,0-16-7.176-16-16
			c0-8.824,7.176-16,16-16s16,7.176,16,16C112,368.824,104.824,376,96,376z"/>
	</g>
</g>
<g>
	<g>
		<path d="M248,432c-17.648,0-32,14.352-32,32s14.352,32,32,32s32-14.352,32-32S265.648,432,248,432z M248,480
			c-8.824,0-16-7.176-16-16c0-8.824,7.176-16,16-16c8.824,0,16,7.176,16,16C264,472.824,256.824,480,248,480z"/>
	</g>
</g>
<g>
	<g>
		<path d="M312,192h-40v16h32v72H192v-72h32v-16h-40c-4.416,0-8,3.576-8,8v88c0,4.424,3.584,8,8,8h128c4.416,0,8-3.576,8-8v-88
			C320,195.576,316.416,192,312,192z"/>
	</g>
</g>
<g>
	<g>
		<path d="M266.344,226.344L256,236.688V152h-16v84.688l-10.344-10.344l-11.312,11.312l24,24c1.56,1.56,3.608,2.344,5.656,2.344
			c2.048,0,4.096-0.784,5.656-2.344l24-24L266.344,226.344z"/>
	</g>
</g>
<g>
</g>
<g>
</g>
<g>
</g>
<g>
</g>
<g>
</g>
<g>
</g>
<g>
</g>
<g>
</g>
<g>
</g>
<g>
</g>
<g>
</g>
<g>
</g>
<g>
</g>
<g>
</g>
<g>
</g>
</svg>
