<?xml version="1.0" encoding="iso-8859-1"?>
<!-- Generator: Adobe Illustrator 19.0.0, SVG Export Plug-In . SVG Version: 6.00 Build 0)  -->
<svg version="1.1" id="Capa_1" xmlns="http://www.w3.org/2000/svg" xmlns:xlink="http://www.w3.org/1999/xlink" x="0px" y="0px"
	 viewBox="0 0 496 496" style="enable-background:new 0 0 496 496;" xml:space="preserve">
<g>
	<g>
		<path d="M176.001,440h-24v16h16c0,13.232-10.768,24-24,24s-24-10.768-24-24v-40c0-13.232,10.768-24,24-24s24,10.768,24,24h16
			c0-22.056-17.944-40-40-40c-22.056,0-40,17.944-40,40v40c0,22.056,17.944,40,40,40c22.056,0,40-17.944,40-40v-8
			C184.001,443.576,180.417,440,176.001,440z"/>
	</g>
</g>
<g>
	<g>
		<path d="M352.001,376c-22.056,0-40,17.944-40,40v40c0,22.056,17.944,40,40,40c22.056,0,40-17.944,40-40v-40
			C392.001,393.944,374.057,376,352.001,376z M376.001,456c0,13.232-10.768,24-24,24s-24-10.768-24-24v-40c0-13.232,10.768-24,24-24
			s24,10.768,24,24V456z"/>
	</g>
</g>
<g>
	<g>
		<path d="M289.465,376.136c-3.8-0.672-7.544,1.392-8.928,4.992l-32.536,84.584l-32.528-84.584c-1.384-3.6-5.136-5.664-8.928-4.992
			c-3.792,0.696-6.544,4.016-6.544,7.864v112h16v-68.912l24.528,63.792c1.192,3.08,4.16,5.12,7.472,5.12s6.28-2.04,7.472-5.128
			l24.528-63.792V496h16V384C296.001,380.152,293.249,376.832,289.465,376.136z"/>
	</g>
</g>
<g>
	<g>
		<path d="M421.273,177.976c-17.824-15.584-41.488-22.6-64.936-19.328c-13.456,1.904-25.976,7.192-36.672,15.04
			C316.201,60.784,281.145,0,248.001,0c-33.096,0-68.104,60.592-71.648,173.176c-10.696-7.768-23.176-12.984-36.568-14.84
			c-23.376-3.256-46.976,3.816-65.024,19.616c-2.52,2.192-3.424,5.72-2.256,8.84c1.168,3.136,4.152,5.208,7.496,5.208h7.64
			c26.168,0,49.744,15.544,60.056,39.6l51.6,120.4h-23.296v16h144v-16h-23.296l51.6-120.4c10.312-24.056,33.888-39.6,60.056-39.6
			h7.64c3.328,0,6.32-2.064,7.488-5.184S423.777,180.168,421.273,177.976z M303.713,176h-15.712v-16h14.968
			C303.289,165.24,303.553,170.552,303.713,176z M240.001,224v16h-13.656l-10.4-16H240.001z M205.545,208l-8.72-13.424
			c-0.584-0.896-1.264-1.704-1.88-2.576h29.056v16H205.545z M256.001,112V96h16v16H256.001z M272.001,160v16h-16v-16H272.001z
			 M256.001,80h-16V64h16V80z M256.001,128v16h-16v-16H256.001z M256.001,192v16h-16v-16H256.001z M240.001,112h-16V96h16V112z
			 M240.001,160v16h-16v-16H240.001z M260.201,256l-11.664,18.144L236.745,256H260.201z M256.001,240v-16h24.768l-10.28,16H256.001z
			 M272.001,208v-16h29.592c-0.768,1.072-1.6,2.088-2.312,3.2l-8.224,12.8H272.001z M301.721,144h-29.72v-16h27.912
			C300.593,133.2,301.201,138.528,301.721,144z M297.497,112h-9.496V96h6.384C295.505,101.128,296.545,106.472,297.497,112z
			 M290.473,80h-18.472V64h13.512C287.265,68.984,288.913,74.352,290.473,80z M248.001,16c10.552,0,21.56,11.632,31.016,32h-62.04
			C226.441,27.632,237.449,16,248.001,16z M210.481,64h13.52v16h-18.472C207.089,74.352,208.737,68.984,210.481,64z M201.617,96
			h6.384v16h-9.496C199.457,106.472,200.489,101.128,201.617,96z M196.097,128h27.904v16h-29.712
			C194.809,138.528,195.409,133.2,196.097,128z M193.033,160h14.968v16h-15.72C192.441,170.552,192.705,165.24,193.033,160z
			 M162.401,225.304c-10.472-24.448-31.944-41.824-57.2-47.4c10.192-3.912,21.32-5.256,32.392-3.72
			c18.784,2.6,35.48,13.208,45.816,29.112l55.648,85.608L209.425,335L162.401,225.304z M333.601,225.304l-52.952,123.544
			c-0.432,0.992-0.648,2.064-0.648,3.152h-62.488l95.232-148.144c10.288-16,26.992-26.704,45.832-29.368
			c10.912-1.528,21.888-0.288,31.968,3.48C365.401,183.592,344.033,200.944,333.601,225.304z"/>
	</g>
</g>
<g>
</g>
<g>
</g>
<g>
</g>
<g>
</g>
<g>
</g>
<g>
</g>
<g>
</g>
<g>
</g>
<g>
</g>
<g>
</g>
<g>
</g>
<g>
</g>
<g>
</g>
<g>
</g>
<g>
</g>
</svg>
