<?xml version="1.0" encoding="iso-8859-1"?>
<!-- Generator: Adobe Illustrator 19.0.0, SVG Export Plug-In . SVG Version: 6.00 Build 0)  -->
<svg version="1.1" id="Capa_1" xmlns="http://www.w3.org/2000/svg" xmlns:xlink="http://www.w3.org/1999/xlink" x="0px" y="0px"
	 viewBox="0 0 496 496" style="enable-background:new 0 0 496 496;" xml:space="preserve">
<g>
	<g>
		<path d="M248,0C111.256,0,0,111.248,0,248s111.256,248,248,248s248-111.248,248-248S384.744,0,248,0z M248,480
			C120.072,480,16,375.92,16,248S120.072,16,248,16s232,104.08,232,232S375.928,480,248,480z"/>
	</g>
</g>
<g>
	<g>
		<path d="M364.704,98.976c-0.176-2.328-1.36-4.464-3.24-5.832C328.36,68.848,289.128,56,248,56C142.128,56,56,142.136,56,248
			c0,41.128,12.84,80.36,37.136,113.464c1.376,1.88,3.512,3.064,5.84,3.24c0.2,0.016,0.408,0.024,0.608,0.024
			c2.112,0,4.152-0.832,5.656-2.344L362.384,105.24C364.032,103.592,364.88,101.304,364.704,98.976z M161.68,283.008
			c-0.288-0.992-0.544-2-0.768-3.008h3.776L161.68,283.008z M196.824,247.864c-18.16-1.568-32.136-16.376-35.848-31.864H200
			c7.96,0,15.576,2.312,22.064,6.616L196.824,247.864z M248,186.8c-6.328-7.384-16-21.168-16-36.4c0-15.24,9.68-29.024,16-36.4
			c6.328,7.384,16,21.168,16,36.4C264,165.64,254.32,179.424,248,186.8z M277.112,167.888C278.864,162.424,280,156.56,280,150.4
			c0-24.432-17.232-44.448-24-51.368V88h-16v11.032c-6.768,6.92-24,26.936-24,51.368c0,26.816,20.728,48.288,25.624,52.976
			l-7.944,7.944C224.008,204.008,212.328,200,200,200h-48h-24v16h16.696c3.288,20.88,19.032,38.808,38.952,45.352L181,264h-29h-24
			v16h16.688c0.84,5.336,2.488,10.712,4.712,15.6l-48.704,48.704C81.896,315.656,72,282.552,72,248c0-97.048,78.952-176,176-176
			c34.56,0,67.664,9.888,96.304,28.696L277.112,167.888z"/>
	</g>
</g>
<g>
	<g>
		<path d="M402.864,134.536c-1.376-1.88-3.512-3.064-5.84-3.24c-2.304-0.168-4.616,0.664-6.264,2.32L133.616,390.76
			c-1.656,1.648-2.496,3.936-2.32,6.264c0.176,2.328,1.36,4.464,3.24,5.832C167.64,427.16,206.872,440,248,440
			c105.872,0,192-86.136,192-192C440,206.872,427.16,167.64,402.864,134.536z M331.312,216h3.712
			c-3.688,15.408-17.536,30.136-35.544,31.832L331.312,216z M296,280h39.192c-3.712,18.232-19.88,32-39.192,32h-39.192
			C260.52,293.768,276.68,280,296,280z M238.32,308.992c0.288,0.992,0.544,2,0.768,3.008h-3.776L238.32,308.992z M219,328h21v17.704
			c-6.544-6.808-14.664-12.104-23.648-15.056L219,328z M203.176,344.136c18.16,1.568,32.136,16.376,35.848,31.864H200
			c-7.968,0-15.576-2.312-22.064-6.624L203.176,344.136z M248,424c-34.56,0-67.664-9.888-96.304-28.696l14.632-14.632
			C175.992,387.984,187.672,392,200,392h40v16h16v-16h40c28.16,0,51.456-20.912,55.36-48H368v-16h-24h-48
			c-15.664,0-29.824,6.48-40,16.888V328h40c28.16,0,51.456-20.912,55.36-48H368v-16h-24h-48c-5.248,0-10.312,0.776-15.136,2.136
			L283,264h13c27.12,0,51.152-21.656,55.296-48H368v-16h-21l48.304-48.304C414.104,180.344,424,213.448,424,248
			C424,345.048,345.048,424,248,424z M256.808,376c3.712-18.232,19.88-32,39.192-32h39.192c-3.712,18.232-19.88,32-39.192,32
			H256.808z"/>
	</g>
</g>
<g>
</g>
<g>
</g>
<g>
</g>
<g>
</g>
<g>
</g>
<g>
</g>
<g>
</g>
<g>
</g>
<g>
</g>
<g>
</g>
<g>
</g>
<g>
</g>
<g>
</g>
<g>
</g>
<g>
</g>
</svg>
