<?xml version="1.0" encoding="iso-8859-1"?>
<!-- Generator: Adobe Illustrator 19.0.0, SVG Export Plug-In . SVG Version: 6.00 Build 0)  -->
<svg version="1.1" id="Capa_1" xmlns="http://www.w3.org/2000/svg" xmlns:xlink="http://www.w3.org/1999/xlink" x="0px" y="0px"
	 viewBox="0 0 496 496" style="enable-background:new 0 0 496 496;" xml:space="preserve">
<g>
	<g>
		<path d="M199.848,56.752C199.872,56.496,200,56.264,200,56c0-30.88-25.12-56-56-56H80c-4.416,0-8,3.584-8,8
			c0,17.184,7.792,32.568,20.016,42.848C84.256,61.656,80,74.528,80,88v16c0,35.288,28.712,64,64,64s64-28.712,64-64V88
			C208,76.728,204.944,65.592,199.848,56.752z M88.808,16H144c19.32,0,35.48,13.768,39.192,32H128c-2.136,0-4.208-0.232-6.248-0.552
			c-0.768-0.128-1.528-0.296-2.288-0.464c-1.24-0.272-2.456-0.608-3.656-0.992c-0.864-0.28-1.728-0.56-2.576-0.896
			c-1.096-0.44-2.144-0.968-3.192-1.496c-0.784-0.392-1.584-0.736-2.344-1.184C98.128,36.744,91.096,27.232,88.808,16z M144,152
			c-16.472,0-31.024-8.344-39.672-21.016L115.312,120h57.376l10.984,10.984C175.024,143.656,160.472,152,144,152z M192,104
			c0,3.896-0.52,7.664-1.4,11.288l-8.944-8.944C180.16,104.848,178.12,104,176,104h-64c-2.12,0-4.16,0.848-5.656,2.344l-8.944,8.944
			C96.52,111.656,96,107.896,96,104V88c0-10.44,3.368-20.448,9.584-28.72C112.456,62.296,120.024,64,128,64h57.744
			C189.656,70.448,192,79.288,192,88V104z"/>
	</g>
</g>
<g>
	<g>
		<circle cx="144" cy="224" r="8"/>
	</g>
</g>
<g>
	<g>
		<circle cx="144" cy="256" r="8"/>
	</g>
</g>
<g>
	<g>
		<circle cx="144" cy="288" r="8"/>
	</g>
</g>
<g>
	<g>
		<path d="M425.608,116.24c-1.216-2.512-3.64-4.208-6.416-4.48c-16.456-1.632-31.168-11.96-38.392-26.952
			c-1.216-2.512-3.648-4.216-6.432-4.488c-4.184-0.416-8.552-0.416-12.728,0c-2.784,0.272-5.216,1.976-6.432,4.488
			c-7.232,14.992-21.944,25.32-38.4,26.952c-2.776,0.272-5.2,1.976-6.416,4.48C306.152,125.024,304,134.368,304,144v16
			c0,35.288,28.712,64,64,64c35.288,0,64-28.712,64-64v-16C432,134.36,429.848,125.024,425.608,116.24z M416.008,160H416
			c0,26.472-21.528,48-48,48s-48-21.528-48-48v-16c0-5.832,1.056-11.528,3.152-16.976c18.44-3.28,34.776-15.024,44.216-31.024
			c0.424,0,0.84,0,1.272,0c9.432,16,25.768,27.744,44.216,31.024c2.088,5.456,3.152,11.152,3.152,16.976V160z"/>
	</g>
</g>
<g>
	<g>
		<path d="M424,240H312c-22.056,0-40,17.944-40,40h16c0-13.232,10.768-24,24-24h8v32c0,26.472,21.528,48,48,48s48-21.528,48-48v-32
			h8c13.232,0,24,10.768,24,24v216h16V280C464,257.944,446.056,240,424,240z M400,288c0,17.648-14.352,32-32,32s-32-14.352-32-32
			v-32h64V288z"/>
	</g>
</g>
<g>
	<g>
		<path d="M368,48c-48.52,0-88,39.48-88,88v88h16v-88c0-39.696,32.304-72,72-72s72,32.304,72,72v88h16v-88
			C456,87.48,416.52,48,368,48z"/>
	</g>
</g>
<g>
	<g>
		<path d="M272,408h-80c-22.056,0-40,17.944-40,40v48h16v-48c0-13.232,10.768-24,24-24h9.136c3.576,13.768,16,24,30.864,24
			s27.288-10.232,30.864-24H272c13.232,0,24,10.768,24,24v48h16v-48C312,425.944,294.056,408,272,408z M232,432
			c-5.896,0-11-3.24-13.776-8h27.544C243,428.76,237.896,432,232,432z"/>
	</g>
</g>
<g>
	<g>
		<path d="M256,277.48V224c0-22.056-17.944-40-40-40H72c-22.056,0-40,17.944-40,40v272h16V224c0-13.232,10.768-24,24-24h16v88
			c0,2.12,0.84,4.16,2.344,5.656l48,48c1.56,1.56,3.608,2.344,5.656,2.344c2.048,0,4.096-0.784,5.656-2.344l16-16l-11.312-11.312
			L144,324.688l-40-40V200h80v32h16v-32h16c13.232,0,24,10.768,24,24v48.64c-2.624-0.376-5.28-0.64-8-0.64
			c-13.232,0-24-10.768-24-24h-16c0,12.192,5.6,22.992,14.232,30.336c-0.768,0.4-1.512,0.824-2.256,1.256
			C192.656,277.664,184,267.856,184,256h-16c0,15.44,8.888,28.712,21.736,35.376C181.2,301.208,176,313.992,176,328v16
			c0,30.88,25.12,56,56,56s56-25.12,56-56v-16C288,305.72,274.888,286.488,256,277.48z M272,344c0,22.056-17.944,40-40,40
			c-22.056,0-40-17.944-40-40v-16c0-22.056,17.944-40,40-40c22.056,0,40,17.944,40,40V344z"/>
	</g>
</g>
<g>
</g>
<g>
</g>
<g>
</g>
<g>
</g>
<g>
</g>
<g>
</g>
<g>
</g>
<g>
</g>
<g>
</g>
<g>
</g>
<g>
</g>
<g>
</g>
<g>
</g>
<g>
</g>
<g>
</g>
</svg>
