<?xml version="1.0" encoding="iso-8859-1"?>
<!-- Generator: Adobe Illustrator 19.0.0, SVG Export Plug-In . SVG Version: 6.00 Build 0)  -->
<svg version="1.1" id="Capa_1" xmlns="http://www.w3.org/2000/svg" xmlns:xlink="http://www.w3.org/1999/xlink" x="0px" y="0px"
	 viewBox="0 0 496 496" style="enable-background:new 0 0 496 496;" xml:space="preserve">
<g>
	<g>
		<path d="M384.008,208h-8v-32c0-4.424-3.576-8-8-8h-32V0h-16v158.864c-1.072-0.28-2.12-0.592-3.152-0.976
			c-0.512-0.192-1.048-0.328-1.552-0.544c-1.76-0.768-3.448-1.672-5.024-2.728c-0.352-0.232-0.656-0.528-1-0.784
			c-1.2-0.872-2.36-1.8-3.432-2.832c-0.48-0.464-0.912-0.984-1.368-1.48c-0.84-0.912-1.64-1.864-2.368-2.872
			c-0.424-0.592-0.824-1.2-1.208-1.824c-0.64-1.032-1.216-2.104-1.744-3.208c-0.312-0.656-0.624-1.312-0.888-1.992
			c-0.48-1.224-0.848-2.488-1.176-3.776c-0.16-0.624-0.36-1.224-0.488-1.856c-0.368-1.944-0.608-3.944-0.608-6v-16v-24h-16v16h-40
			h-32h-8c-9.04,0-17.296,3.128-24,8.208V0h-16v136h0.808c-0.528,2.584-0.808,5.264-0.808,8v24h-32c-4.424,0-8,3.576-8,8v32h-8
			c-4.424,0-8,3.576-8,8v240c0,22.056,17.944,40,40,40h208c22.056,0,40-17.944,40-40V216C392.008,211.576,388.432,208,384.008,208z
			 M336.008,184h24v24h-24V184z M248,120h32v8h0.008c0,2.752,0.288,5.432,0.728,8.056c0.056,0.32,0.088,0.64,0.144,0.96
			c0.472,2.472,1.16,4.872,2,7.2c0.144,0.4,0.28,0.792,0.432,1.184c0.888,2.264,1.928,4.44,3.136,6.528
			c0.208,0.36,0.424,0.704,0.64,1.056c1.28,2.088,2.68,4.08,4.256,5.944c0.184,0.216,0.384,0.416,0.568,0.624
			c1.656,1.888,3.432,3.672,5.36,5.288c0.056,0.048,0.096,0.096,0.152,0.136c1.936,1.608,4.032,3.024,6.208,4.312
			c0.304,0.176,0.584,0.368,0.888,0.544c2.104,1.184,4.312,2.192,6.6,3.056c0.416,0.16,0.832,0.312,1.256,0.464
			c2.288,0.792,4.656,1.416,7.088,1.856c0.184,0.032,0.352,0.112,0.536,0.144V208h-72V120z M216.008,120h16v88h-16V120z
			 M176.008,144c0-13.232,10.768-24,24-24v88h-24V144z M136.008,184h24v24h-24V184z M376.008,456c0,13.232-10.768,24-24,24h-208
			c-13.232,0-24-10.768-24-24V224h48h40h32h88h48V456z"/>
	</g>
</g>
<g>
	<g>
		<path d="M328.008,240h-160c-4.424,0-8,3.576-8,8v56c0,4.424,3.576,8,8,8h160c4.424,0,8-3.576,8-8v-56
			C336.008,243.576,332.432,240,328.008,240z M320.008,296h-144v-40h144V296z"/>
	</g>
</g>
<g>
	<g>
		<path d="M352.008,336h-48c-4.424,0-8,3.576-8,8v32c0,4.424,3.576,8,8,8h48c4.424,0,8-3.576,8-8v-32
			C360.008,339.576,356.432,336,352.008,336z M344.008,368h-32v-16h32V368z"/>
	</g>
</g>
<g>
	<g>
		<path d="M352.008,400h-48c-4.424,0-8,3.576-8,8v32c0,4.424,3.576,8,8,8h48c4.424,0,8-3.576,8-8v-32
			C360.008,403.576,356.432,400,352.008,400z M344.008,432h-32v-16h32V432z"/>
	</g>
</g>
<g>
	<g>
		<rect x="144.008" y="336" width="32" height="16"/>
	</g>
</g>
<g>
	<g>
		<rect x="192.008" y="336" width="32" height="16"/>
	</g>
</g>
<g>
	<g>
		<rect x="240.008" y="336" width="32" height="16"/>
	</g>
</g>
<g>
	<g>
		<rect x="144.008" y="368" width="32" height="16"/>
	</g>
</g>
<g>
	<g>
		<rect x="192.008" y="368" width="32" height="16"/>
	</g>
</g>
<g>
	<g>
		<rect x="240.008" y="368" width="32" height="16"/>
	</g>
</g>
<g>
	<g>
		<rect x="144.008" y="400" width="32" height="16"/>
	</g>
</g>
<g>
	<g>
		<rect x="192.008" y="400" width="32" height="16"/>
	</g>
</g>
<g>
	<g>
		<rect x="240.008" y="400" width="32" height="16"/>
	</g>
</g>
<g>
	<g>
		<rect x="144.008" y="432" width="32" height="16"/>
	</g>
</g>
<g>
	<g>
		<rect x="192.008" y="432" width="32" height="16"/>
	</g>
</g>
<g>
	<g>
		<rect x="240.008" y="432" width="32" height="16"/>
	</g>
</g>
<g>
</g>
<g>
</g>
<g>
</g>
<g>
</g>
<g>
</g>
<g>
</g>
<g>
</g>
<g>
</g>
<g>
</g>
<g>
</g>
<g>
</g>
<g>
</g>
<g>
</g>
<g>
</g>
<g>
</g>
</svg>
