<?xml version="1.0" encoding="iso-8859-1"?>
<!-- Generator: Adobe Illustrator 19.0.0, SVG Export Plug-In . SVG Version: 6.00 Build 0)  -->
<svg version="1.1" id="Capa_1" xmlns="http://www.w3.org/2000/svg" xmlns:xlink="http://www.w3.org/1999/xlink" x="0px" y="0px"
	 viewBox="0 0 496 496" style="enable-background:new 0 0 496 496;" xml:space="preserve">
<g>
	<g>
		<path d="M456,0H40C17.944,0,0,17.944,0,40v160c0,22.056,17.944,40,40,40h120v73.776c0,21.08,17.152,38.224,38.224,38.224
			c6.408,0,12.288,2.632,16.56,7.4c4.272,4.776,6.24,10.912,5.528,17.28l-12.264,110.44c-0.032,0.296-0.048,0.584-0.048,0.88v8h16
			v-7.56l12.224-109.992c1.192-10.8-2.272-21.632-9.512-29.72C219.472,340.64,209.088,336,198.224,336
			C185.968,336,176,326.024,176,313.776V240h16v32c0,13.232,10.768,24,24,24s24-10.768,24-24v-32h16v32c0,13.232,10.768,24,24,24
			s24-10.768,24-24v-32h16v73.776c0,12.256-9.968,22.224-22.224,22.224c-10.856,0-21.24,4.64-28.488,12.728
			c-7.24,8.088-10.712,18.92-9.512,29.72l12.224,110V496h16v-8c0-0.296-0.016-0.592-0.048-0.88L275.68,376.68
			c-0.712-6.368,1.256-12.504,5.528-17.28c4.272-4.768,10.16-7.4,16.568-7.4c21.08,0,38.224-17.152,38.224-38.224V240h120
			c22.056,0,40-17.944,40-40V40C496,17.944,478.056,0,456,0z M224,272c0,4.408-3.584,8-8,8s-8-3.592-8-8v-32h16V272z M234.544,224
			H40c-13.232,0-24-10.768-24-24V40c0-13.232,10.768-24,24-24h276.264L234.544,224z M288,272c0,4.408-3.584,8-8,8
			c-4.416,0-8-3.592-8-8v-32h16V272z M480,200c0,13.232-10.768,24-24,24H251.736l81.712-208H456c13.232,0,24,10.768,24,24V200z"/>
	</g>
</g>
<g>
	<g>
		<path d="M384,96v-8c0-10.416-6.712-19.216-16-22.528V56h-16v9.472c-9.296,3.312-16,12.112-16,22.528v16c0,13.232,10.768,24,24,24
			c4.416,0,8,3.592,8,8v16c0,4.408-3.584,8-8,8c-4.416,0-8-3.592-8-8v-8h-16v8c0,10.416,6.704,19.216,16,22.528V184h16v-9.472
			c9.288-3.312,16-12.112,16-22.528v-16c0-13.232-10.768-24-24-24c-4.416,0-8-3.592-8-8V88c0-4.408,3.584-8,8-8c4.416,0,8,3.592,8,8
			v8H384z"/>
	</g>
</g>
<g>
	<g>
		<path d="M448,96v-8c0-10.416-6.712-19.216-16-22.528V56h-16v9.472c-9.296,3.312-16,12.112-16,22.528v16c0,13.232,10.768,24,24,24
			c4.416,0,8,3.592,8,8v16c0,4.408-3.584,8-8,8c-4.416,0-8-3.592-8-8v-8h-16v8c0,10.416,6.704,19.216,16,22.528V184h16v-9.472
			c9.288-3.312,16-12.112,16-22.528v-16c0-13.232-10.768-24-24-24c-4.416,0-8-3.592-8-8V88c0-4.408,3.584-8,8-8c4.416,0,8,3.592,8,8
			v8H448z"/>
	</g>
</g>
<g>
	<g>
		<path d="M224,56V40h-24h-16H88h-8H48v16h28.688l16,16l-16,16H48v16h32h8h96h16h24V88h-20.688l-16-16l16-16H224z M170.344,77.656
			L180.688,88H99.312l10.344-10.344c3.128-3.128,3.128-8.184,0-11.312L99.312,56h81.376l-10.344,10.344
			C167.216,69.472,167.216,74.528,170.344,77.656z"/>
	</g>
</g>
<g>
	<g>
		<rect x="48" y="120" width="96" height="16"/>
	</g>
</g>
<g>
	<g>
		<rect x="160" y="120" width="64" height="16"/>
	</g>
</g>
<g>
	<g>
		<rect x="48" y="152" width="40" height="16"/>
	</g>
</g>
<g>
	<g>
		<rect x="104" y="152" width="120" height="16"/>
	</g>
</g>
<g>
	<g>
		<rect x="48" y="184" width="72" height="16"/>
	</g>
</g>
<g>
	<g>
		<rect x="136" y="184" width="40" height="16"/>
	</g>
</g>
<g>
	<g>
		<rect x="192" y="184" width="32" height="16"/>
	</g>
</g>
<g>
</g>
<g>
</g>
<g>
</g>
<g>
</g>
<g>
</g>
<g>
</g>
<g>
</g>
<g>
</g>
<g>
</g>
<g>
</g>
<g>
</g>
<g>
</g>
<g>
</g>
<g>
</g>
<g>
</g>
</svg>
