<?xml version="1.0" encoding="iso-8859-1"?>
<!-- Generator: Adobe Illustrator 19.0.0, SVG Export Plug-In . SVG Version: 6.00 Build 0)  -->
<svg version="1.1" id="Capa_1" xmlns="http://www.w3.org/2000/svg" xmlns:xlink="http://www.w3.org/1999/xlink" x="0px" y="0px"
	 viewBox="0 0 496 496" style="enable-background:new 0 0 496 496;" xml:space="preserve">
<g>
	<g>
		<path d="M440,480v-40v-48v-8c0-22.056-17.944-40-40-40v-40v-24v-8c0-22.056-17.944-40-40-40h-65.472
			c0.896-2.512,1.472-5.184,1.472-8c0-13.232-10.768-24-24-24h-16v-16h40c22.056,0,40-17.944,40-40v-32
			c0-8.384-1.904-16.32-5.224-23.464l45.912-45.912C381.4,37.912,384,31.64,384,24.968C384,11.2,372.8,0,359.032,0
			c-6.672,0-12.944,2.6-17.656,7.312L303.008,45.68C298.144,19.72,275.352,0,248,0c-30.88,0-56,25.12-56,56
			c0,1.768,0.272,3.512,0.44,5.272C173.312,70.192,160,89.544,160,112v32c0,22.056,17.944,40,40,40h40v16h-16
			c-13.232,0-24,10.768-24,24c0,2.816,0.576,5.488,1.472,8H136c-22.056,0-40,17.944-40,40v8v24v40c-22.056,0-40,17.944-40,40v8v24
			v64H0v16h64h368h64v-16H440z M352.688,18.624c1.696-1.688,3.944-2.624,6.344-2.624c4.944,0,8.968,4.024,8.968,8.968
			c0,2.4-0.936,4.648-2.624,6.344l-43.56,43.56c-4.008-4.512-8.72-8.368-13.976-11.4L352.688,18.624z M319.192,104H271.36
			c-1.432-9.928-5.448-19.016-11.384-26.552C266.024,73.936,272.896,72,280,72C299.312,72,315.472,85.768,319.192,104z M248,16
			c22.056,0,40,17.944,40,40c0,0.216-0.048,0.416-0.056,0.632C285.344,56.256,282.704,56,280,56
			c-11.536,0-22.656,3.576-32.008,10.104C238.912,59.752,227.896,56,216,56c-2.704,0-5.344,0.256-7.944,0.632
			C208.048,56.416,208,56.208,208,56C208,33.944,225.944,16,248,16z M216,72c19.312,0,35.472,13.768,39.192,32h-78.384
			C180.528,85.768,196.688,72,216,72z M200,168c-13.232,0-24-10.768-24-24v-24h144v24c0,13.232-10.768,24-24,24H200z M224,216h48
			c4.408,0,8,3.592,8,8s-3.592,8-8,8h-48c-4.408,0-8-3.592-8-8S219.592,216,224,216z M112,280v-8c0-13.232,10.768-24,24-24h88h48h88
			c13.232,0,24,10.768,24,24v8v24c0,4.408-3.592,8-8,8c-4.408,0-8-3.592-8-8c0-13.232-10.768-24-24-24s-24,10.768-24,24
			c0,4.408-3.592,8-8,8c-4.408,0-8-3.592-8-8c0-13.232-10.768-24-24-24s-24,10.768-24,24c0,4.408-3.592,8-8,8c-4.408,0-8-3.592-8-8
			c0-13.232-10.768-24-24-24s-24,10.768-24,24c0,4.408-3.592,8-8,8s-8-3.592-8-8c0-13.232-10.768-24-24-24s-24,10.768-24,24
			c0,4.408-3.592,8-8,8s-8-3.592-8-8V280z M112,326.528c2.512,0.896,5.184,1.472,8,1.472c13.232,0,24-10.768,24-24
			c0-4.408,3.592-8,8-8s8,3.592,8,8c0,13.232,10.768,24,24,24s24-10.768,24-24c0-4.408,3.592-8,8-8s8,3.592,8,8
			c0,13.232,10.768,24,24,24s24-10.768,24-24c0-4.408,3.592-8,8-8c4.408,0,8,3.592,8,8c0,13.232,10.768,24,24,24s24-10.768,24-24
			c0-4.408,3.592-8,8-8c4.408,0,8,3.592,8,8c0,13.232,10.768,24,24,24c2.816,0,5.488-0.576,8-1.472V344H112V326.528z M424,480H72
			v-41.472c2.512,0.896,5.184,1.472,8,1.472c13.232,0,24-10.768,24-24c0-4.408,3.592-8,8-8s8,3.592,8,8v16c0,17.648,14.352,32,32,32
			s32-14.352,32-32v-32c0-4.408,3.592-8,8-8s8,3.592,8,8v16c0,13.232,10.768,24,24,24s24-10.768,24-24c0-4.408,3.592-8,8-8
			c4.408,0,8,3.592,8,8v24c0,13.232,10.768,24,24,24s24-10.768,24-24v-40c0-4.408,3.592-8,8-8c4.408,0,8,3.592,8,8v16
			c0,13.232,10.768,24,24,24s24-10.768,24-24c0-4.408,3.592-8,8-8c4.408,0,8,3.592,8,8v24c0,13.232,10.768,24,24,24
			c2.816,0,5.488-0.576,8-1.472V480z M424,392v48c0,4.408-3.592,8-8,8c-4.408,0-8-3.592-8-8v-24c0-13.232-10.768-24-24-24
			s-24,10.768-24,24c0,4.408-3.592,8-8,8c-4.408,0-8-3.592-8-8v-16c0-13.232-10.768-24-24-24s-24,10.768-24,24v40
			c0,4.408-3.592,8-8,8c-4.408,0-8-3.592-8-8v-24c0-13.232-10.768-24-24-24s-24,10.768-24,24c0,4.408-3.592,8-8,8s-8-3.592-8-8v-16
			c0-13.232-10.768-24-24-24s-24,10.768-24,24v32c0,8.824-7.176,16-16,16c-8.824,0-16-7.176-16-16v-16c0-13.232-10.768-24-24-24
			s-24,10.768-24,24c0,4.408-3.592,8-8,8s-8-3.592-8-8v-24v-8c0-13.232,10.768-24,24-24h8h288h8c13.232,0,24,10.768,24,24V392z"/>
	</g>
</g>
<g>
</g>
<g>
</g>
<g>
</g>
<g>
</g>
<g>
</g>
<g>
</g>
<g>
</g>
<g>
</g>
<g>
</g>
<g>
</g>
<g>
</g>
<g>
</g>
<g>
</g>
<g>
</g>
<g>
</g>
</svg>
