<?xml version="1.0" encoding="iso-8859-1"?>
<!-- Generator: Adobe Illustrator 19.0.0, SVG Export Plug-In . SVG Version: 6.00 Build 0)  -->
<svg version="1.1" id="Capa_1" xmlns="http://www.w3.org/2000/svg" xmlns:xlink="http://www.w3.org/1999/xlink" x="0px" y="0px"
	 viewBox="0 0 501.656 501.656" style="enable-background:new 0 0 501.656 501.656;" xml:space="preserve">
<g>
	<g>
		<path d="M312,251.636V122.828h8v-16h-16h-48h-16v16h8v128.808c-18.232,3.712-32,19.88-32,39.192v176c0,4.416,3.584,8,8,8h112
			c4.416,0,8-3.584,8-8v-176C344,271.508,330.232,255.348,312,251.636z M328,458.828h-96v-16h96V458.828z M328,426.828h-96v-120h96
			V426.828z M232,290.828c0-13.232,10.768-24,24-24c4.416,0,8-3.584,8-8v-136h32v136c0,4.416,3.584,8,8,8c13.232,0,24,10.768,24,24
			H232z"/>
	</g>
</g>
<g>
	<g>
		<path d="M488,258.828h-31.064l6.704-60.328l38.016-38.016l-11.312-11.312l-40,40c-1.288,1.288-2.096,2.968-2.296,4.776
			l-7.208,64.88H368c-2.176,0-4.264,0.888-5.768,2.456c-1.504,1.568-2.312,3.688-2.224,5.864l8,200
			c0.168,4.288,3.696,7.68,7.992,7.68h104c4.296,0,7.816-3.392,7.992-7.68l8-200c0.088-2.176-0.712-4.296-2.224-5.864
			C492.264,259.716,490.176,258.828,488,258.828z M472.312,458.828h-88.624l-5.656-141.312c1.616,0.992,3.192,2.144,4.96,3.56
			c5.432,4.344,12.184,9.752,24.992,9.752c12.808,0,19.568-5.408,25-9.752c4.696-3.76,7.808-6.248,15.008-6.248
			c7.192,0,10.304,2.488,15.008,6.248c3.696,2.96,8.064,6.376,14.488,8.272L472.312,458.828z M478.176,312.276
			c-1.704-1.008-3.336-2.216-5.184-3.696c-5.432-4.344-12.192-9.752-25-9.752s-19.568,5.408-25.008,9.752
			c-4.696,3.76-7.808,6.248-15,6.248c-7.192,0-10.288-2.488-14.992-6.248c-3.92-3.136-8.576-6.8-15.656-8.616l-1.008-25.136h103.344
			L478.176,312.276z"/>
	</g>
</g>
<g>
	<g>
		<path d="M192,226.82v-72c0-30.872-25.12-55.992-56-55.992h-16v-16h8c4.416,0,8-3.584,8-8v-24c0-13.232-10.768-24-24-24H80
			c-13.232,0-24,10.768-24,24v24c0,4.416,3.584,8,8,8h8v16H56c-30.88,0-56,25.12-56,56v72c0,10.432,6.688,19.328,16,22.632v58.744
			c-9.312,3.304-16,12.2-16,22.632v104c0,13.232,10.768,24,24,24h3.056l2.216,4.432c3.576,7.128,10.752,11.56,18.736,11.56
			s15.16-4.432,18.728-11.576l0.848-1.696c1.672-3.368,7.152-3.368,8.84,0l0.848,1.696c3.568,7.144,10.744,11.576,18.736,11.576
			c7.984,0,15.168-4.44,18.728-11.576l0.84-1.688c1.68-3.368,7.168-3.352,8.84-0.008l0.856,1.712
			c3.576,7.128,10.744,11.56,18.728,11.56s15.16-4.432,18.728-11.576l2.216-4.424H168c13.232,0,24-10.768,24-24v-104
			c0-10.432-6.688-19.328-16-22.632v-58.744C185.312,246.148,192,237.252,192,226.82z M72,50.828c0-4.408,3.592-8,8-8h32
			c4.408,0,8,3.592,8,8v16h-8H80h-8V50.828z M104,82.828v16H88v-16H104z M16,154.828c0-22.056,17.944-40,40-40h24h32h24
			c22.056,0,40,17.944,40,40v8H16V154.828z M16,330.828c0-4.408,3.592-8,8-8c4.416,0,8-3.584,8-8v-72c0-4.416-3.584-8-8-8
			c-4.408,0-8-3.592-8-8v-48h32v7.432c0,38.616,15.04,74.92,42.344,102.224C114.624,312.772,128,345.052,128,379.396v7.432H16
			V330.828z M176,434.828c0,4.408-3.592,8-8,8h-8.008c-3.032,0-5.8,1.712-7.152,4.424l-4.424,8.848
			c-1.68,3.368-7.168,3.352-8.832,0.008l-0.848-1.704c-3.576-7.144-10.752-11.576-18.736-11.576c-7.992,0-15.168,4.44-18.736,11.576
			l-0.848,1.688c-1.688,3.36-7.16,3.368-8.84,0l-0.848-1.696C87.16,447.26,79.984,442.828,72,442.828s-15.16,4.432-18.728,11.576
			l-0.848,1.696c-1.68,3.36-7.16,3.368-8.84,0l-4.424-8.848c-1.36-2.712-4.128-4.424-7.16-4.424h-8c-4.408,0-8-3.592-8-8v-32h160
			V434.828z M168,322.828c4.408,0,8,3.592,8,8v56h-32v-7.432c0-38.616-15.04-74.92-42.344-102.224
			C77.376,252.884,64,220.604,64,186.26v-7.432h112v48c0,4.408-3.592,8-8,8c-4.416,0-8,3.584-8,8v72
			C160,319.244,163.584,322.828,168,322.828z"/>
	</g>
</g>
<g>
	<g>
		<path d="M280,330.828c-17.648,0-32,14.352-32,32s14.352,32,32,32s32-14.352,32-32S297.648,330.828,280,330.828z M280,378.828
			c-8.824,0-16-7.176-16-16c0-8.824,7.176-16,16-16c8.824,0,16,7.176,16,16C296,371.652,288.824,378.828,280,378.828z"/>
	</g>
</g>
<g>
	<g>
		<path d="M424.768,219.396l-62.224-62.224c-3.128-3.128-8.184-3.128-11.312,0c-20.28,20.272-20.28,53.264,0,73.536
			c10.136,10.136,23.456,15.208,36.768,15.208c13.32,0,26.632-5.072,36.768-15.208C427.896,227.58,427.896,222.516,424.768,219.396z
			 M357.52,174.772l12.056,12.056h-16.792C353.632,182.62,355.16,178.516,357.52,174.772z M376,227.756
			c-4.904-1.728-9.536-4.44-13.456-8.352c-4.744-4.744-7.824-10.504-9.36-16.576H376V227.756z M392,229.596v-20.344l15.168,15.168
			C402.504,227.356,397.296,229.012,392,229.596z"/>
	</g>
</g>
<g>
</g>
<g>
</g>
<g>
</g>
<g>
</g>
<g>
</g>
<g>
</g>
<g>
</g>
<g>
</g>
<g>
</g>
<g>
</g>
<g>
</g>
<g>
</g>
<g>
</g>
<g>
</g>
<g>
</g>
</svg>
