<?xml version="1.0" encoding="iso-8859-1"?>
<!-- Generator: Adobe Illustrator 19.0.0, SVG Export Plug-In . SVG Version: 6.00 Build 0)  -->
<svg version="1.1" id="Capa_1" xmlns="http://www.w3.org/2000/svg" xmlns:xlink="http://www.w3.org/1999/xlink" x="0px" y="0px"
	 viewBox="0 0 496 496" style="enable-background:new 0 0 496 496;" xml:space="preserve">
<g>
	<g>
		<path d="M464.005,360h-40v-16h40c2.816,0,5.44-1.488,6.88-3.92c1.44-2.424,1.488-5.432,0.136-7.912l-47.016-86.208V224h32
			c4.424,0,8-3.584,8-8v-80c0-4.416-3.576-8-8-8h-32v-16.64c27.088-3.904,48-27.208,48-55.36c0-30.88-25.128-56-56-56
			s-56,25.12-56,56c0,28.152,20.912,51.456,48,55.36V128h-32c-4.424,0-8,3.584-8,8v80c0,4.416,3.576,8,8,8h32v21.96l-47.024,86.208
			c-1.352,2.48-1.296,5.488,0.136,7.912c1.448,2.432,4.064,3.92,6.888,3.92h40v16h-40c-4.424,0-8,3.584-8,8
			c0,28.16,20.912,51.456,48,55.36V496h16v-72.64c27.088-3.904,48-27.208,48-55.36C472.005,363.584,468.429,360,464.005,360z
			 M376.005,56c0-22.056,17.944-40,40-40c22.056,0,40,17.944,40,40c0,22.056-17.944,40-40,40C393.949,96,376.005,78.056,376.005,56z
			 M384.005,208v-64h64v64H384.005z M381.477,328l34.528-63.296L450.525,328H381.477z M416.005,408c-19.32,0-35.48-13.768-39.192-32
			h78.392C451.485,394.232,435.325,408,416.005,408z"/>
	</g>
</g>
<g>
	<g>
		<path d="M288.005,120c-32.576,0-59.488,24.48-63.448,56h-88.552v-72h88c3.816,0,7.096-2.688,7.84-6.432
			c0.752-3.744-1.248-7.488-4.768-8.952l-96-40c-1.968-0.816-4.192-0.816-6.16,0l-96,40c-3.512,1.464-5.512,5.208-4.768,8.952
			c0.76,3.744,4.04,6.432,7.856,6.432h88v72h-88c-3.232,0-6.16,1.952-7.392,4.936c-1.24,2.992-0.552,6.432,1.736,8.72
			l125.656,125.656V480h-72v16h160v-16h-72V315.312l56-56V320c0,13.232,10.768,24,24,24c13.232,0,24-10.768,24-24v-32
			c0-4.408,3.584-8,8-8c4.416,0,8,3.592,8,8v80c0,13.232,10.768,24,24,24s24-10.768,24-24V226.192c9.928-11.28,16-26.024,16-42.192
			C352.005,148.712,323.293,120,288.005,120z M296.005,136.72c7.272,1.224,13.992,4.08,19.768,8.2l-19.768,19.768V136.72z
			 M296.005,203.312l19.768,19.768c-5.776,4.12-12.496,6.968-19.768,8.2V203.312z M280.005,136.72v27.968l-19.768-19.768
			C266.013,140.8,272.733,137.952,280.005,136.72z M248.925,156.232L268.693,176h-27.968
			C241.957,168.728,244.805,162.008,248.925,156.232z M280.005,203.304v27.984c-7.16-1.192-13.888-3.976-19.792-8.192
			L280.005,203.304z M72.005,88l56-23.336l56,23.336H72.005z M160.005,300.688L51.317,192h217.376L160.005,300.688z M320.005,368
			c0,4.408-3.584,8-8,8c-4.416,0-8-3.592-8-8v-80c0-13.232-10.768-24-24-24s-24,10.768-24,24v32c0,4.408-3.584,8-8,8s-8-3.592-8-8
			v-76.688l8.8-8.8c11.168,8.712,24.784,13.488,39.2,13.488c11.664,0,22.576-3.184,32-8.664V368z M327.085,211.768L307.317,192
			h27.968C334.053,199.272,331.205,205.992,327.085,211.768z M307.317,176l19.768-19.768c4.12,5.776,6.968,12.496,8.2,19.768
			H307.317z"/>
	</g>
</g>
<g>
	<g>
		<path d="M144.005,208c-13.232,0-24,10.768-24,24s10.768,24,24,24s24-10.768,24-24S157.237,208,144.005,208z M144.005,240
			c-4.416,0-8-3.592-8-8s3.584-8,8-8s8,3.592,8,8S148.421,240,144.005,240z"/>
	</g>
</g>
<g>
</g>
<g>
</g>
<g>
</g>
<g>
</g>
<g>
</g>
<g>
</g>
<g>
</g>
<g>
</g>
<g>
</g>
<g>
</g>
<g>
</g>
<g>
</g>
<g>
</g>
<g>
</g>
<g>
</g>
</svg>
