<?xml version="1.0" encoding="iso-8859-1"?>
<!-- Generator: Adobe Illustrator 19.0.0, SVG Export Plug-In . SVG Version: 6.00 Build 0)  -->
<svg version="1.1" id="Capa_1" xmlns="http://www.w3.org/2000/svg" xmlns:xlink="http://www.w3.org/1999/xlink" x="0px" y="0px"
	 viewBox="0 0 496 496" style="enable-background:new 0 0 496 496;" xml:space="preserve">
<g>
	<g>
		<path d="M136,128c-12.848,0-24.896,3.424-35.344,9.344l-33.192-33.192C70.272,99.392,72,93.912,72,88
			c0-14.872-10.232-27.288-24-30.864V0H32v57.136C18.232,60.712,8,73.128,8,88c0,17.648,14.352,32,32,32
			c5.92,0,11.392-1.72,16.152-4.536l31.416,31.416C73.128,160.056,64,178.96,64,200c0,39.704,32.296,72,72,72c4.424,0,8-3.576,8-8
			v-32c0-4.424-3.576-8-8-8c-13.232,0-24-10.768-24-24s10.768-24,24-24s24,10.768,24,24c0,4.424,3.576,8,8,8h32c4.424,0,8-3.576,8-8
			C208,160.296,175.704,128,136,128z M40,104c-8.824,0-16-7.184-16-16s7.176-16,16-16c8.816,0,16,7.184,16,16S48.816,104,40,104z
			 M175.2,192c-3.72-18.232-19.872-32-39.192-32c-22.056,0-40,17.944-40,40c0,19.32,13.768,35.48,32,39.192v16.24H128
			c-27.104-3.888-48-27.264-48-55.432c0-30.872,25.128-56,56-56c28.16,0,51.536,20.896,55.432,48H175.2z"/>
	</g>
</g>
<g>
	<g>
		<path d="M456,80c-5.92,0-11.392,1.72-16.152,4.536l-74.192-74.192l-11.312,11.312l74.192,74.192
			C425.72,100.608,424,106.08,424,112s1.72,11.392,4.536,16.152l-43.376,43.376C372.272,159.456,355.008,152,336,152
			c-39.704,0-72,32.296-72,72c0,4.424,3.576,8,8,8h32c4.424,0,8-3.576,8-8c0-13.232,10.768-24,24-24s24,10.768,24,24
			s-10.768,24-24,24c-4.424,0-8,3.576-8,8v32c0,4.424,3.576,8,8,8c39.704,0,72-32.296,72-72c0-14.928-4.568-28.8-12.376-40.312
			l44.224-44.224C444.608,142.28,450.08,144,456,144c17.648,0,32-14.352,32-32S473.648,80,456,80z M344,279.432V263.2
			c18.232-3.72,32-19.872,32-39.192c0-22.056-17.944-40-40-40c-19.32,0-35.48,13.768-39.192,32h-16.232
			c3.888-27.104,27.264-48,55.432-48c30.872,0,56,25.128,56,56C392,252.168,371.104,275.536,344,279.432z M456,128
			c-8.824,0-16-7.176-16-16c0-8.824,7.176-16,16-16c8.816,0,16,7.184,16,16S464.816,128,456,128z"/>
	</g>
</g>
<g>
	<g>
		<path d="M319.928,351.608c-0.216-4.072-3.464-7.32-7.536-7.536c-1.696-0.08-41.712-2.008-66.024,22.296
			c-2.392,2.392-4.456,4.96-6.368,7.6v-26.272c8.536-7.552,32-30.904,32-59.704c0-34.432-33.632-61.168-35.064-62.296
			c-2.904-2.264-6.968-2.264-9.872,0C225.632,226.832,192,253.568,192,288c0,28.792,23.464,52.144,32,59.704v26.272
			c-1.912-2.64-3.976-5.216-6.368-7.6c-24.304-24.304-64.32-22.384-66.024-22.296c-4.072,0.216-7.32,3.472-7.536,7.536
			c-0.096,1.696-2.016,41.712,22.296,66.024c17.888,17.888,44.264,21.568,57.632,22.232V496h16v-56.136
			c13.368-0.664,39.744-4.336,57.632-22.232C321.944,393.32,320.024,353.304,319.928,351.608z M177.68,406.32
			c-13.616-13.616-16.8-34.832-17.496-46.136c11.304,0.696,32.52,3.872,46.136,17.496c13.616,13.616,16.8,34.832,17.496,46.136
			C212.504,423.12,191.296,419.936,177.68,406.32z M232,333.296c-8.264-7.92-24-25.6-24-45.296s15.736-37.376,24-45.296
			c8.264,7.92,24,25.6,24,45.296C256,307.696,240.264,325.376,232,333.296z M286.32,406.32
			c-13.616,13.616-34.832,16.8-46.136,17.496c0.696-11.304,3.872-32.512,17.496-46.136c13.616-13.616,34.824-16.8,46.136-17.496
			C303.12,371.496,299.936,392.704,286.32,406.32z"/>
	</g>
</g>
<g>
	<g>
		<path d="M420.936,289.704c-2.904-2.264-6.968-2.264-9.872,0C409.632,290.832,376,317.568,376,352
			c0,28.792,23.464,52.144,32,59.704V496h16v-84.296c8.536-7.552,32-30.904,32-59.704C456,317.568,422.368,290.832,420.936,289.704z
			 M416,397.296c-8.264-7.92-24-25.6-24-45.296s15.736-37.376,24-45.296c8.264,7.92,24,25.6,24,45.296S424.264,389.376,416,397.296z
			"/>
	</g>
</g>
<g>
	<g>
		<path d="M68.936,289.704c-2.904-2.264-6.968-2.264-9.872,0C57.632,290.832,24,317.568,24,352c0,28.792,23.464,52.144,32,59.704
			V496h16v-84.296c8.536-7.552,32-30.904,32-59.704C104,317.568,70.368,290.832,68.936,289.704z M64,397.296
			c-8.264-7.92-24-25.6-24-45.296s15.736-37.376,24-45.296c8.264,7.92,24,25.6,24,45.296S72.264,389.376,64,397.296z"/>
	</g>
</g>
<g>
</g>
<g>
</g>
<g>
</g>
<g>
</g>
<g>
</g>
<g>
</g>
<g>
</g>
<g>
</g>
<g>
</g>
<g>
</g>
<g>
</g>
<g>
</g>
<g>
</g>
<g>
</g>
<g>
</g>
</svg>
